<svg width="79" height="84" viewBox="0 0 79 84" fill="none" xmlns="http://www.w3.org/2000/svg">
<g clip-path="url(#clip0)">
<path d="M18.76 34.6513C18.6039 35.2846 18.9581 36.0172 19.551 36.2878L19.6172 36.318C20.2101 36.5885 20.8174 36.2946 20.9735 35.6613C21.0513 35.3453 21.0022 35.0048 20.8597 34.709C20.7167 34.412 20.4796 34.1604 20.1825 34.0248L20.1163 33.9946C19.5233 33.7241 18.9161 34.018 18.76 34.6513Z" fill="#FAE18A"/>
<path d="M22.1162 25.9449C16.323 23.2897 10.1707 22.0651 4.32423 22.4036C3.90903 22.4277 3.57697 22.7199 3.46847 23.1571C3.35998 23.5942 3.49403 24.0999 3.81365 24.461C7.36425 28.4689 11.4082 31.8005 15.8335 34.3629C16.4079 34.6956 17.0475 34.4764 17.262 33.8734C17.4767 33.2706 17.1852 32.5119 16.6107 32.1795C13.1987 30.2036 10.0272 27.7438 7.15393 24.8475C16.8155 25.0241 26.7444 29.575 34.5113 37.3865C31.0248 37.3276 27.4953 36.7055 23.9883 35.529C23.3823 35.3257 22.8153 35.6943 22.7217 36.3522C22.628 37.0104 23.0435 37.7085 23.6495 37.9116C28.2199 39.4449 32.8266 40.0897 37.3416 39.8283C37.3891 39.8255 37.4351 39.8183 37.4804 39.8088C37.9766 40.0424 38.4723 40.2779 38.9672 40.5157C35.5282 40.7698 32.1876 41.6489 29.1337 43.1199C24.8296 45.1931 21.0887 48.4433 18.3153 52.5192C18.0751 52.8723 18.0588 53.3803 18.2734 53.8258C18.488 54.2712 18.8955 54.5753 19.3212 54.6075C24.2372 54.9797 29.1105 54.0805 33.4146 52.0073C37.5798 50.001 41.2175 46.8924 43.9613 42.9996C46.7348 44.4265 49.4855 45.9212 52.2102 47.4811C48.5444 47.7677 44.9845 48.7126 41.7269 50.2817C37.0815 52.5193 33.0442 56.0272 30.051 60.4262C29.8108 60.7793 29.7945 61.2873 30.0091 61.7328C30.2236 62.1783 30.6311 62.4823 31.0568 62.5145C36.3625 62.9162 41.6221 61.9459 46.2675 59.7083C50.5839 57.6292 54.375 54.4526 57.2916 50.484C60.006 52.1396 62.6914 53.861 65.3447 55.6454C62.2336 55.8941 59.2127 56.6976 56.4474 58.0296C52.4852 59.9381 49.0414 62.9302 46.4883 66.6826C46.2481 67.0355 46.2318 67.5436 46.4464 67.9891C46.6611 68.4347 47.0685 68.7387 47.4942 68.7708C52.0198 69.1136 56.5062 68.2859 60.4683 66.3774C64.0869 64.6344 67.2706 61.9856 69.7408 58.6815C70.9972 59.5719 72.2461 60.4759 73.4864 61.3948C74.0305 61.798 74.7007 61.6722 74.9832 61.114C75.1652 60.7547 75.1421 60.3037 74.9575 59.9204C74.8553 59.7082 74.7036 59.5167 74.5096 59.3731C73.2318 58.4263 71.9447 57.4952 70.6499 56.5782C70.2697 51.5502 68.871 46.4039 66.5969 41.6827C64.2946 36.9029 61.0935 32.5517 57.3396 29.0995C56.9865 28.7746 56.5268 28.6812 56.1575 28.8591C55.7881 29.037 55.5747 29.4547 55.6085 29.9333C55.9679 35.0206 57.3749 40.2359 59.6772 45.0157C60.8598 47.471 62.2811 49.8118 63.8912 51.9773C61.9744 50.724 60.0418 49.503 58.0944 48.3155C57.6508 42.9447 56.1398 37.4595 53.7125 32.4201C51.2116 27.228 47.7343 22.5015 43.6566 18.7516C43.3035 18.4268 42.8439 18.3333 42.4745 18.5112C42.1051 18.6891 41.8917 19.1068 41.9256 19.5854C42.3159 25.1113 43.8441 30.7766 46.3451 35.9688C47.823 39.0371 49.6421 41.9426 51.7244 44.5803C49.5439 43.3512 47.3473 42.1634 45.1364 41.0184C44.818 37.2813 44 33.5379 42.7001 29.8814C42.6812 29.828 42.6596 29.7765 42.6356 29.7267C42.3595 29.1536 41.7671 28.8255 41.2469 28.9827C40.6815 29.1534 40.4153 29.8327 40.6524 30.4998C41.6011 33.1681 42.2753 35.8859 42.6663 38.6108C36.7558 32.3199 32.7334 23.969 31.4986 15.4259C33.3559 17.3988 35.037 19.5822 36.5155 21.9442C36.891 22.5442 37.5885 22.7567 38.073 22.4189C38.5577 22.081 38.6449 21.321 38.2705 20.7207C36.1256 17.2942 33.5817 14.2174 30.7094 11.5759C30.3563 11.2511 29.8967 11.1576 29.5273 11.3356C29.1579 11.5135 28.9445 11.9311 28.9783 12.4097C29.3686 17.9357 30.897 23.6009 33.398 28.7931C35.0162 32.1526 37.0436 35.3169 39.3774 38.148C38.6896 37.8184 38.0007 37.4921 37.3104 37.1707C32.9172 32.3672 27.6791 28.4945 22.1162 25.9449ZM67.0517 58.0638C62.7276 63.1785 56.5592 66.1496 49.8644 66.3425C54.1883 61.2279 60.3567 58.2567 67.0517 58.0638ZM58.1437 32.9819C63.3851 38.6457 66.9694 46.0869 68.1308 53.7158C62.8894 48.0521 59.3051 40.6108 58.1437 32.9819ZM54.6118 49.8819C49.3618 56.3248 41.6932 60.0186 33.3825 60.1076C38.6327 53.6648 46.3012 49.971 54.6118 49.8819ZM44.4464 22.6043C50.3556 28.8945 54.3766 37.2423 55.6116 45.784C49.7021 39.4937 45.6813 31.146 44.4464 22.6043ZM40.8814 42.9357C36.0925 48.7157 29.1716 52.0489 21.6667 52.191C26.4561 46.4112 33.3767 43.0773 40.8814 42.9357Z" fill="#FAE18A"/>
<path d="M38.6521 25.7729L38.6758 25.8209C38.9912 26.4568 39.6732 26.7581 40.199 26.4937C40.7203 26.2317 40.8922 25.5123 40.5879 24.8804C40.5852 24.875 40.5825 24.8693 40.5798 24.8639L40.5561 24.8158C40.2407 24.18 39.5587 23.8786 39.0329 24.143C38.5071 24.4074 38.334 25.1391 38.6521 25.7729Z" fill="#FAE18A"/>
</g>
<defs>
<clipPath id="clip0">
<rect width="65.8078" height="54.5512" fill="white" transform="translate(29.1475 83.4143) rotate(-115.719)"/>
</clipPath>
</defs>
</svg>
