<svg width="99" height="99" viewBox="0 0 99 99" fill="none" xmlns="http://www.w3.org/2000/svg">
<g clip-path="url(#clip0)">
<path d="M74.553 48.4988C74.4645 47.7508 73.7841 47.1026 73.0332 47.0508L72.9494 47.0451C72.1985 46.9935 71.6614 47.5579 71.7498 48.3059C71.794 48.6791 71.9854 49.0274 72.2596 49.2892C72.5349 49.5522 72.8934 49.7279 73.2697 49.7539L73.3535 49.7596C74.1044 49.8112 74.6415 49.2468 74.553 48.4988Z" fill="#FAE18A" fill-opacity="0.5"/>
<path d="M74.461 59.2743C81.8024 59.7918 88.9511 58.6169 95.1342 55.8763C95.5733 55.6817 95.8136 55.2309 95.7533 54.7142C95.6931 54.1975 95.3428 53.7053 94.8506 53.4448C89.3841 50.5539 83.6591 48.5947 77.8341 47.6218C77.0781 47.4954 76.4756 47.9922 76.4886 48.7312C76.5013 49.4701 77.1246 50.1719 77.8808 50.298C82.372 51.0482 86.7998 52.4194 91.0824 54.3836C80.5656 58.1168 67.983 57.2295 56.4135 51.9392C60.2067 50.5867 64.2751 49.8258 68.5443 49.6733C69.282 49.647 69.7454 49.0182 69.5793 48.2689C69.4133 47.5193 68.6805 46.9334 67.9429 46.9599C62.3791 47.1585 57.1369 48.3325 52.3619 50.4489C52.3117 50.4712 52.2648 50.4977 52.2198 50.5263C51.5884 50.4754 50.9569 50.4221 50.3253 50.366C53.9399 48.6946 57.1944 46.3873 59.8986 43.5566C63.7096 39.5672 66.4338 34.534 67.7767 29.0011C67.8929 28.5218 67.7042 27.966 67.2913 27.5715C66.8784 27.1771 66.3144 27.0138 65.841 27.152C60.3752 28.7462 55.4719 31.6977 51.6608 35.6872C47.9726 39.548 45.3026 44.3862 43.9173 49.709C40.3393 49.2929 36.7584 48.7943 33.1792 48.2145C37.0259 46.4158 40.4907 43.9483 43.3751 40.9288C47.4885 36.623 50.4285 31.1909 51.8777 25.2193C51.994 24.7401 51.8053 24.1842 51.3924 23.7898C50.9794 23.3953 50.4154 23.2321 49.9421 23.3702C44.0431 25.0909 38.751 28.2762 34.6376 32.582C30.8156 36.5829 28.0073 41.5569 26.4661 47.032C22.8591 46.3445 19.2567 45.5743 15.6635 44.7228C18.9259 43.1904 21.8654 41.0947 24.314 38.5315C27.8223 34.859 30.3301 30.2254 31.5662 25.1318C31.6826 24.6526 31.4938 24.0968 31.0808 23.7023C30.6678 23.3077 30.1039 23.1446 29.6306 23.2827C24.5988 24.7503 20.0847 27.4673 16.5764 31.1399C13.3723 34.4939 11.0063 38.6507 9.67772 43.2261C7.95773 42.7737 6.24037 42.3037 4.52625 41.814C3.77426 41.5991 3.10085 42.0073 3.02212 42.7256C2.97132 43.1879 3.17941 43.6661 3.53468 44.0055C3.73142 44.1934 3.97317 44.3387 4.24122 44.4153C6.00725 44.9199 7.77687 45.4037 9.5491 45.8691C12.0024 51.1505 15.6047 56.146 19.9808 60.3265C24.4112 64.5588 29.6392 67.9627 35.0997 70.1703C35.6134 70.378 36.1483 70.2924 36.4753 69.95C36.8024 69.6076 36.8635 69.0694 36.6325 68.5657C34.1777 63.2118 30.5384 58.145 26.1079 53.9126C23.8322 51.7386 21.3448 49.7852 18.7246 48.0981C21.306 48.6745 23.8913 49.2096 26.4788 49.7024C29.1399 55.3286 33.0013 60.6449 37.6722 65.1071C42.4848 69.7045 48.1638 73.402 54.0953 75.7999C54.609 76.0076 55.1438 75.922 55.4709 75.5796C55.798 75.2372 55.8591 74.699 55.6281 74.1954C52.9617 68.3798 49.0084 62.8757 44.1958 58.2782C41.3518 55.5614 38.2051 53.1591 34.8826 51.1533C37.7391 51.5964 40.5963 51.9883 43.4516 52.3282C45.3136 56.239 47.7185 59.9539 50.6089 63.379C50.651 63.429 50.6953 63.4759 50.7415 63.52C51.2726 64.0274 52.0464 64.1415 52.545 63.7603C53.0869 63.346 53.0987 62.5036 52.5714 61.8787C50.4621 59.3792 48.6293 56.7149 47.0999 53.9278C56.0448 58.3283 63.7853 65.7227 68.5901 74.4572C65.7808 73.0787 63.0765 71.4009 60.5189 69.4478C59.8691 68.9517 59.0288 69.0053 58.6422 69.5673C58.2554 70.1295 58.4699 70.9865 59.1185 71.4835C62.829 74.3167 66.8289 76.6098 71.007 78.2988C71.5207 78.5066 72.0555 78.4209 72.3826 78.0785C72.7097 77.7362 72.7708 77.1979 72.5398 76.6943C69.8734 70.8787 65.9201 65.3748 61.1074 60.7773C57.9935 57.8026 54.5164 55.2052 50.8434 53.0923C51.7209 53.1693 52.5982 53.2423 53.4751 53.3094C60.1756 56.7181 67.4114 58.7773 74.461 59.2743ZM12.8358 42.8016C15.4332 35.5158 20.8951 29.7983 28.0545 26.8707C25.4572 34.1563 19.9953 39.8738 12.8358 42.8016ZM32.6535 66.2996C24.6866 62.3053 17.7893 55.7164 13.4352 47.9405C21.402 51.9347 28.2993 58.5237 32.6535 66.2996ZM29.6077 46.5944C32.6666 37.4966 39.4569 30.3886 48.4054 26.9169C45.3463 36.0147 38.5561 43.1227 29.6077 46.5944ZM51.6767 71.9555C42.7333 67.5553 34.9957 60.1636 30.1913 51.4308C39.1348 55.831 46.8723 63.2226 51.6767 71.9555ZM47.2729 48.5272C50.1026 40.3334 56.231 33.9188 64.2868 30.7171C61.4565 38.9109 55.3288 45.326 47.2729 48.5272Z" fill="#FAE18A" fill-opacity="0.5"/>
<path d="M56.6537 66.1766L56.6085 66.1343C56.0093 65.575 55.1495 65.5263 54.6885 66.0256C54.2314 66.5207 54.3377 67.3682 54.9234 67.9278C54.9284 67.9326 54.9337 67.9376 54.9388 67.9423L54.984 67.9846C55.5832 68.544 56.4429 68.5928 56.9039 68.0934C57.365 67.594 57.2549 66.7326 56.6537 66.1766Z" fill="#FAE18A" fill-opacity="0.5"/>
</g>
<defs>
<clipPath id="clip0">
<rect width="76" height="63" fill="white" transform="translate(43.5176) rotate(43.6901)"/>
</clipPath>
</defs>
</svg>
