<svg width="51" height="42" viewBox="0 0 51 42" fill="none" xmlns="http://www.w3.org/2000/svg">
<g clip-path="url(#clip0)">
<path d="M37.004 9.53947C36.6242 9.22568 36.0095 9.22656 35.631 9.54132L35.5887 9.57649C35.2103 9.89133 35.2112 10.4009 35.5911 10.7147C35.7806 10.8713 36.0284 10.9495 36.2764 10.9495C36.5254 10.9495 36.7743 10.8706 36.9641 10.7129L37.0063 10.6777C37.3847 10.3629 37.3838 9.85326 37.004 9.53947Z" fill="#FAE18A" fill-opacity="0.65"/>
<path d="M41.8288 14.6772C45.5347 11.6051 48.3848 7.81965 50.0709 3.72998C50.1906 3.43953 50.1006 3.11777 49.8386 2.90063C49.5767 2.6835 49.1886 2.60897 48.8382 2.70812C44.9467 3.81062 41.3539 5.4706 38.1594 7.64219C37.7448 7.92403 37.6843 8.43114 38.0243 8.77479C38.3642 9.11852 38.976 9.16882 39.3906 8.88682C41.8537 7.21251 44.5673 5.86053 47.4802 4.85461C44.1929 11.3717 37.8412 16.6369 29.9793 19.3619C31.1622 17.0085 32.7426 14.8105 34.6928 12.8096C35.0298 12.4638 34.9648 11.9571 34.5477 11.6778C34.1305 11.3983 33.5193 11.4522 33.1824 11.798C30.6407 14.4057 28.6919 17.3293 27.3898 20.4876C27.3761 20.5208 27.3659 20.5546 27.3575 20.5884C27.0359 20.8496 26.7132 21.1097 26.3891 21.3685C27.3435 18.945 27.8403 16.3834 27.8403 13.8229C27.8403 10.2143 26.8546 6.60303 24.99 3.37957C24.8284 3.10038 24.488 2.92276 24.1145 2.92276C23.7411 2.92276 23.4006 3.10038 23.2391 3.37957C21.3744 6.60303 20.3888 10.2143 20.3888 13.8229C20.3888 17.3152 21.3119 20.8097 23.0616 23.953C21.1815 25.3727 19.2626 26.7547 17.3079 28.0976C18.3145 25.509 18.8384 22.7766 18.8384 20.0454C18.8384 16.1505 17.7746 12.2531 15.7621 8.77414C15.6005 8.49496 15.2601 8.31734 14.8866 8.31734C14.5131 8.31734 14.1726 8.49496 14.0112 8.77414C11.9987 12.2531 10.9349 16.1505 10.9349 20.0454C10.9349 23.6644 11.8539 27.2856 13.5987 30.5714C11.5822 31.8759 9.53042 33.1391 7.44635 34.3599C8.29693 32.1612 8.74033 29.8419 8.74033 27.5234C8.74033 24.2014 7.83295 20.877 6.11626 17.9095C5.95481 17.6303 5.61442 17.4527 5.24083 17.4527C4.86724 17.4527 4.52685 17.6303 4.36539 17.9095C2.6487 20.877 1.74132 24.2014 1.74132 27.5234C1.74132 30.5573 2.50035 33.5922 3.93918 36.3563C2.92132 36.9195 1.89676 37.4731 0.864823 38.0159C0.412106 38.2541 0.278029 38.7513 0.565309 39.1266C0.750163 39.3682 1.06463 39.5004 1.38599 39.5004C1.56395 39.5004 1.74395 39.4599 1.9053 39.375C2.9685 38.8157 4.02404 38.245 5.07248 37.6645C8.61887 39.0539 12.5795 39.789 16.538 39.789C20.5454 39.789 24.5559 39.0368 28.1358 37.6138C28.4726 37.48 28.6869 37.1978 28.6869 36.8881C28.6869 36.5785 28.4726 36.2963 28.1358 36.1625C24.5559 34.7394 20.5455 33.9873 16.538 33.9873C14.4794 33.9873 12.4205 34.1872 10.4191 34.5731C11.9003 33.6795 13.3648 32.7645 14.8112 31.8285C18.6117 33.2871 22.8398 34.0569 27.0649 34.0569C31.4181 34.0569 35.7745 33.2399 39.6631 31.6941C39.9999 31.5603 40.2142 31.2781 40.2142 30.9684C40.2142 30.6588 39.9999 30.3766 39.6631 30.2428C35.7746 28.697 31.4182 27.8799 27.0649 27.8799C24.4924 27.8799 21.9188 28.1655 19.4413 28.7179C20.9924 27.6369 22.5208 26.5314 24.0247 25.4021C26.6723 26.4105 29.488 27.0809 32.4025 27.3949C32.445 27.3995 32.4871 27.4016 32.5289 27.4016C33.0094 27.4016 33.4268 27.106 33.4904 26.7005C33.5596 26.2597 33.1845 25.8559 32.6529 25.7986C30.526 25.5695 28.4554 25.1375 26.4729 24.5103C32.6915 22.5502 39.6931 22.5502 45.9118 24.5103C43.9603 25.1276 41.9233 25.5559 39.8313 25.7878C39.2998 25.8467 38.9266 26.2517 38.9977 26.6921C39.0688 27.1328 39.5574 27.4412 40.0887 27.3832C43.1236 27.0467 46.0514 26.3241 48.7905 25.2353C49.1273 25.1014 49.3415 24.8193 49.3415 24.5096C49.3415 24.1999 49.1273 23.9177 48.7905 23.7839C44.902 22.2381 40.5456 21.4212 36.1923 21.4212C33.3756 21.4212 30.5576 21.7637 27.8659 22.4239C28.3157 22.0638 28.7636 21.702 29.2086 21.3376C33.9176 19.9224 38.2701 17.6272 41.8288 14.6772ZM5.24102 34.7288C3.17773 30.1095 3.17773 24.9378 5.24102 20.3185C7.30432 24.9377 7.30432 30.1094 5.24102 34.7288ZM25.2301 36.8884C19.6576 38.5988 13.4187 38.5988 7.84626 36.8884C13.4187 35.178 19.6577 35.178 25.2301 36.8884ZM14.8868 28.945C12.2231 23.2602 12.2231 16.8307 14.8868 11.1458C17.5504 16.8307 17.5504 23.2602 14.8868 28.945ZM36.7824 30.9687C30.5646 32.9282 23.5656 32.9282 17.3479 30.9687C23.5657 29.0091 30.5646 29.0091 36.7824 30.9687ZM24.1147 21.878C21.7511 16.7243 21.7514 10.9218 24.1147 5.76789C26.4781 10.9218 26.4784 16.7244 24.1147 21.878Z" fill="#FAE18A" fill-opacity="0.65"/>
<path d="M36.5254 25.987L36.4849 25.9874C35.9488 25.9936 35.5201 26.359 35.5277 26.8035C35.5352 27.2441 35.9684 27.597 36.4982 27.597C36.5027 27.597 36.5075 27.597 36.5121 27.5969L36.5525 27.5965C37.0886 27.5903 37.5173 27.225 37.5097 26.7805C37.5021 26.336 37.0609 25.9783 36.5254 25.987Z" fill="#FAE18A" fill-opacity="0.65"/>
</g>
<defs>
<clipPath id="clip0">
<rect width="49.7089" height="41.2061" fill="white" transform="translate(0.414062 0.623962)"/>
</clipPath>
</defs>
</svg>
