<svg width="66" height="65" viewBox="0 0 66 65" fill="none" xmlns="http://www.w3.org/2000/svg">
<g clip-path="url(#clip0)">
<path d="M33.4882 15.5284C32.9965 15.5593 32.5488 15.9804 32.488 16.469L32.4812 16.5235C32.4206 17.012 32.7699 17.3831 33.2616 17.3521C33.5069 17.3367 33.7412 17.2242 33.9221 17.0545C34.1037 16.8842 34.2313 16.6564 34.2618 16.4115L34.2685 16.357C34.3292 15.8685 33.9799 15.4974 33.4882 15.5284Z" fill="#FAE18A" fill-opacity="0.65"/>
<path d="M40.5221 15.9751C41.1236 11.1992 40.6128 6.48836 39.0449 2.35191C38.9336 2.05817 38.6478 1.88504 38.3082 1.90586C37.9686 1.92667 37.6346 2.13779 37.4468 2.44987C35.3626 5.91613 33.8776 9.58472 33.0331 13.354C32.9235 13.8432 33.2263 14.2545 33.7094 14.2725C34.1924 14.2907 34.6731 13.9089 34.7826 13.4196C35.4338 10.5134 36.4882 7.67088 37.9247 4.94447C39.9853 11.9468 38.9542 20.1324 35.084 27.4983C34.3368 24.9725 33.9859 22.2882 34.0395 19.4946C34.0488 19.0119 33.6548 18.6867 33.1595 18.7683C32.664 18.8498 32.255 19.3073 32.2459 19.79C32.1759 23.4307 32.7545 26.8964 33.9653 30.0908C33.978 30.1244 33.9936 30.156 34.0107 30.1864C33.9548 30.5969 33.8973 31.0074 33.838 31.4179C32.8762 28.9973 31.4862 26.789 29.7346 24.9214C27.2659 22.2893 24.0766 20.3296 20.5114 19.254C20.2025 19.1609 19.8328 19.2642 19.5603 19.5197C19.2879 19.7752 19.1611 20.1376 19.2343 20.4517C20.0793 24.0786 21.8309 27.3868 24.2995 30.0189C26.6886 32.5661 29.7524 34.4835 33.179 35.5793C32.7788 37.9011 32.3246 40.2218 31.8175 42.5385C30.7809 39.9617 29.2938 37.6104 27.4254 35.6182C24.7609 32.7773 21.3188 30.6623 17.4709 29.5015C17.1621 29.4084 16.7923 29.5117 16.5199 29.7672C16.2475 30.0227 16.1207 30.3852 16.1939 30.6993C17.1059 34.6136 18.9962 38.184 21.6606 41.0249C24.1363 43.6646 27.2839 45.6772 30.8043 46.8802C30.2259 49.2112 29.5936 51.5362 28.9085 53.8523C28.0248 51.6667 26.7616 49.6717 25.1756 47.9806C22.903 45.5576 19.967 43.7535 16.6848 42.7634C16.376 42.6702 16.0063 42.7735 15.7338 43.0291C15.4613 43.2847 15.3345 43.6471 15.4077 43.9612C16.1856 47.3 17.798 50.3456 20.0705 52.7686C22.146 54.9815 24.7758 56.6759 27.7162 57.7078C27.359 58.8148 26.9904 59.9195 26.6091 61.0214C26.4418 61.5048 26.6842 61.9592 27.1504 62.0364C27.4505 62.0862 27.7703 61.9675 28.0047 61.7476C28.1345 61.6259 28.2381 61.4732 28.2977 61.3009C28.6906 60.1657 29.0701 59.0273 29.4377 57.8866C32.9749 56.474 36.3667 54.3007 39.2539 51.5928C42.1769 48.8513 44.5876 45.5591 46.2253 42.0723C46.3794 41.7442 46.3427 41.3918 46.1308 41.166C45.919 40.9401 45.5697 40.8808 45.2324 41.0136C41.6478 42.4246 38.2081 44.6195 35.2851 47.3611C33.7836 48.7693 32.4186 50.3236 31.2227 51.9743C31.6918 50.3091 32.134 48.6399 32.5487 46.9678C36.3186 45.4318 39.9292 43.1008 43.011 40.2104C46.1862 37.2325 48.8048 33.6563 50.5837 29.8687C50.7378 29.5407 50.701 29.1883 50.4892 28.9624C50.2773 28.7365 49.928 28.6773 49.5908 28.8101C45.6971 30.3427 41.9606 32.7269 38.7853 35.705C36.909 37.4648 35.2271 39.4337 33.7979 41.5315C34.1898 39.6818 34.5483 37.83 34.8728 35.9774C37.4937 34.9017 40.0061 33.4645 42.3467 31.6998C42.3809 31.674 42.4131 31.6468 42.4435 31.6183C42.794 31.2896 42.8963 30.7884 42.6652 30.4491C42.4141 30.0803 41.8643 30.0423 41.4374 30.3642C39.7293 31.6521 37.9235 32.7534 36.0484 33.6522C39.2433 27.9684 44.3503 23.1786 50.227 20.3542C49.2259 22.1394 48.0331 23.8453 46.6658 25.4456C46.3185 25.8521 46.3233 26.4028 46.6765 26.6755C47.0298 26.9482 47.5972 26.839 47.945 26.4332C49.9285 24.1116 51.5696 21.5817 52.8227 18.9137C52.9768 18.5857 52.94 18.2333 52.7282 18.0074C52.5163 17.7815 52.167 17.7223 51.8298 17.8551C47.9361 19.3877 44.1997 21.772 41.0244 24.75C38.9699 26.6769 37.1488 28.8545 35.6371 31.1774C35.7189 30.6071 35.798 30.0368 35.8733 29.4665C38.34 25.2129 39.9445 20.5613 40.5221 15.9751ZM27.5523 55.6301C22.8874 53.6722 19.3494 49.9 17.6944 45.1193C22.3593 47.077 25.8972 50.8492 27.5523 55.6301ZM43.6096 43.5309C40.7151 48.5905 36.1645 52.8585 30.93 55.423C33.8244 50.3635 38.3751 46.0954 43.6096 43.5309ZM30.6313 44.8128C24.7995 42.4885 20.4011 37.7989 18.455 31.8301C24.2868 34.1545 28.6852 38.8442 30.6313 44.8128ZM47.9862 31.3103C44.7915 36.993 39.6865 41.781 33.8108 44.6053C37.0055 38.9223 42.1104 34.1344 47.9862 31.3103ZM32.5276 33.3454C27.2779 31.2033 23.3087 26.9707 21.5068 21.5948C26.7564 23.7372 30.7261 27.9694 32.5276 33.3454Z" fill="#FAE18A" fill-opacity="0.65"/>
<path d="M44.3907 27.8525L44.3615 27.8805C43.9747 28.2517 43.912 28.8115 44.2216 29.1305C44.5284 29.4468 45.0858 29.4078 45.4722 29.0453C45.4756 29.0422 45.479 29.039 45.4823 29.0358L45.5115 29.0078C45.8983 28.6365 45.9611 28.0768 45.6515 27.7578C45.3419 27.4388 44.7754 27.4798 44.3907 27.8525Z" fill="#FAE18A" fill-opacity="0.65"/>
</g>
<defs>
<clipPath id="clip0">
<rect width="49.7089" height="41.2061" fill="white" transform="translate(0.700684 34.0563) rotate(-43.1643)"/>
</clipPath>
</defs>
</svg>
