<svg width="1600" height="434" viewBox="0 0 1600 434" fill="none" xmlns="http://www.w3.org/2000/svg">
<g clip-path="url(#clip0)">
<path d="M1274.28 379.591C1273.61 379.252 1272.66 379.408 1272.17 379.938L1272.11 379.997C1271.62 380.528 1271.76 381.232 1272.44 381.571C1272.77 381.739 1273.17 381.785 1273.56 381.723C1273.94 381.66 1274.3 381.489 1274.55 381.223L1274.6 381.164C1275.1 380.633 1274.95 379.929 1274.28 379.591Z" fill="#FAE18A" fill-opacity="0.65"/>
<path d="M1283.14 385.482C1287.99 380.303 1291.31 374.353 1292.76 368.275C1292.87 367.843 1292.64 367.421 1292.17 367.186C1291.71 366.952 1291.09 366.946 1290.58 367.172C1284.9 369.674 1279.84 372.872 1275.53 376.677C1274.97 377.171 1275.02 377.887 1275.64 378.277C1276.26 378.667 1277.21 378.583 1277.77 378.088C1281.09 375.155 1284.89 372.603 1289.09 370.481C1285.86 380.317 1277.55 389.193 1266.22 394.937C1267.38 391.385 1269.2 387.949 1271.64 384.693C1272.06 384.13 1271.82 383.446 1271.1 383.164C1270.38 382.883 1269.45 383.111 1269.03 383.674C1265.85 387.918 1263.67 392.45 1262.55 397.144C1262.54 397.193 1262.53 397.242 1262.53 397.291C1262.1 397.733 1261.68 398.174 1261.25 398.613C1262.05 395.022 1262.09 391.356 1261.38 387.816C1260.37 382.826 1257.84 378.081 1254.07 374.093C1253.74 373.747 1253.17 373.587 1252.6 373.681C1252.02 373.775 1251.55 374.106 1251.38 374.533C1249.41 379.458 1248.9 384.699 1249.91 389.688C1250.89 394.517 1253.29 399.116 1256.86 403.023C1254.36 405.458 1251.79 407.851 1249.16 410.199C1249.99 406.367 1250.03 402.457 1249.26 398.681C1248.18 393.296 1245.45 388.175 1241.38 383.87C1241.05 383.525 1240.48 383.365 1239.9 383.459C1239.33 383.552 1238.85 383.884 1238.68 384.31C1236.56 389.626 1236.01 395.282 1237.1 400.667C1238.11 405.671 1240.54 410.447 1244.15 414.551C1241.41 416.862 1238.6 419.124 1235.74 421.335C1236.43 418.082 1236.47 414.763 1235.82 411.558C1234.89 406.965 1232.56 402.596 1229.09 398.925C1228.76 398.579 1228.19 398.419 1227.62 398.513C1227.04 398.607 1226.57 398.938 1226.4 399.365C1224.58 403.899 1224.12 408.723 1225.05 413.317C1225.9 417.511 1227.91 421.517 1230.9 424.977C1229.49 426.011 1228.07 427.034 1226.63 428.044C1226 428.487 1225.94 429.208 1226.48 429.655C1226.83 429.943 1227.35 430.046 1227.85 429.966C1228.12 429.921 1228.39 429.82 1228.61 429.662C1230.09 428.621 1231.56 427.567 1233.01 426.501C1238.85 427.531 1245.16 427.552 1251.25 426.557C1257.41 425.55 1263.37 423.502 1268.49 420.635C1268.97 420.366 1269.22 419.922 1269.13 419.494C1269.04 419.065 1268.64 418.729 1268.08 418.629C1262.17 417.561 1255.79 417.529 1249.62 418.536C1246.46 419.053 1243.34 419.847 1240.37 420.883C1242.4 419.275 1244.4 417.642 1246.36 415.985C1252.62 417.046 1259.34 417.048 1265.84 415.987C1272.54 414.893 1279.02 412.668 1284.57 409.554C1285.05 409.284 1285.3 408.84 1285.21 408.412C1285.13 407.984 1284.72 407.648 1284.16 407.547C1277.75 406.387 1270.81 406.352 1264.12 407.446C1260.16 408.093 1256.28 409.134 1252.62 410.52C1254.7 408.636 1256.75 406.723 1258.74 404.784C1263.1 405.513 1267.62 405.732 1272.19 405.434C1272.26 405.43 1272.33 405.422 1272.39 405.412C1273.13 405.291 1273.69 404.777 1273.67 404.201C1273.66 403.574 1272.97 403.11 1272.13 403.164C1268.8 403.382 1265.49 403.305 1262.26 402.936C1271.28 398.663 1282.06 396.904 1292.18 398.051C1289.35 399.395 1286.33 400.499 1283.18 401.345C1282.37 401.56 1281.91 402.214 1282.15 402.805C1282.38 403.397 1283.22 403.7 1284.02 403.487C1288.59 402.259 1292.9 400.524 1296.81 398.33C1297.29 398.061 1297.54 397.617 1297.45 397.188C1297.37 396.76 1296.96 396.424 1296.4 396.324C1289.99 395.163 1283.05 395.129 1276.35 396.222C1272.02 396.93 1267.78 398.112 1263.82 399.701C1264.41 399.09 1265 398.477 1265.58 397.862C1272.44 394.722 1278.49 390.455 1283.14 385.482ZM1232.45 422.399C1227.98 416.531 1226.53 409.381 1228.42 402.475C1232.88 408.344 1234.33 415.494 1232.45 422.399ZM1263.81 420.362C1255.71 424.128 1246.11 425.695 1237.06 424.731C1245.16 420.966 1254.76 419.398 1263.81 420.362ZM1245.67 411.979C1239.98 404.788 1238.19 395.899 1240.7 387.369C1246.38 394.56 1248.18 403.45 1245.67 411.979ZM1279.93 409.275C1270.91 413.547 1260.14 415.305 1250.03 414.158C1259.05 409.887 1269.82 408.128 1279.93 409.275ZM1257.9 399.889C1252.82 393.357 1251.2 385.334 1253.39 377.615C1258.47 384.147 1260.09 392.169 1257.9 399.889Z" fill="#FAE18A" fill-opacity="0.65"/>
<path d="M1278.14 402.452L1278.08 402.462C1277.26 402.606 1276.7 403.219 1276.84 403.831C1276.97 404.439 1277.74 404.818 1278.55 404.684C1278.56 404.683 1278.57 404.682 1278.57 404.681L1278.64 404.67C1279.46 404.527 1280.02 403.914 1279.88 403.301C1279.74 402.689 1278.97 402.305 1278.14 402.452Z" fill="#FAE18A" fill-opacity="0.65"/>
</g>
<g clip-path="url(#clip1)">
<path d="M76.3253 245.396C76.2004 244.713 75.4751 244.146 74.7053 244.13L74.6194 244.128C73.8497 244.112 73.3268 244.652 73.4517 245.335C73.514 245.676 73.7257 245.988 74.0179 246.217C74.3114 246.447 74.6858 246.594 75.0716 246.602L75.1576 246.604C75.9273 246.62 76.4502 246.079 76.3253 245.396Z" fill="#FAE18A" fill-opacity="0.65"/>
<path d="M76.7281 255.294C84.2546 255.465 91.506 254.091 97.6986 251.318C98.1384 251.121 98.3632 250.697 98.2778 250.225C98.1924 249.754 97.8117 249.316 97.2967 249.097C91.577 246.669 85.636 245.107 79.6383 244.455C78.8598 244.37 78.267 244.851 78.3143 245.529C78.3614 246.207 79.0307 246.826 79.8093 246.91C84.4337 247.413 89.0219 248.489 93.4891 250.115C82.9134 253.979 70.0137 253.685 57.9464 249.306C61.7605 247.908 65.8832 247.04 70.2391 246.724C70.9918 246.669 71.4363 246.072 71.232 245.391C71.0278 244.71 70.252 244.202 69.4994 244.257C63.8226 244.67 58.5194 245.965 53.7372 248.106C53.6868 248.128 53.6402 248.155 53.5955 248.183C52.9479 248.162 52.3001 248.139 51.652 248.114C55.2689 246.43 58.4886 244.176 61.1216 241.465C64.8325 237.644 67.3845 232.91 68.5018 227.774C68.5985 227.329 68.38 226.826 67.9399 226.481C67.4997 226.136 66.9158 226.01 66.4385 226.156C60.9261 227.846 56.0512 230.76 52.3403 234.581C48.7491 238.278 46.2434 242.831 45.073 247.776C41.3973 247.542 37.7148 247.233 34.0303 246.849C37.8785 245.038 41.3057 242.629 44.1143 239.737C48.1195 235.613 50.8737 230.503 52.0795 224.96C52.1762 224.515 51.9578 224.012 51.5176 223.667C51.0774 223.322 50.4935 223.196 50.0162 223.342C44.0669 225.166 38.8055 228.31 34.8003 232.434C31.0787 236.266 28.438 240.95 27.1153 246.041C23.3974 245.559 19.6804 245.001 15.9691 244.368C19.2325 242.826 22.14 240.78 24.5241 238.325C27.9402 234.807 30.2896 230.449 31.318 225.721C31.4149 225.276 31.1964 224.773 30.7561 224.428C30.3158 224.083 29.7321 223.956 29.2547 224.103C24.1801 225.659 19.6921 228.341 16.276 231.858C13.1562 235.07 10.9298 238.985 9.78294 243.241C8.00435 242.897 6.22762 242.537 4.4533 242.158C3.67489 241.992 3.00551 242.395 2.95815 243.057C2.92755 243.484 3.16225 243.914 3.54096 244.211C3.75068 244.376 4.00444 244.499 4.2819 244.558C6.10996 244.949 7.94072 245.32 9.77332 245.673C12.5239 250.421 16.4355 254.859 21.1004 258.516C25.8231 262.219 31.3228 265.128 37.0049 266.929C37.5394 267.098 38.0821 266.998 38.4005 266.67C38.719 266.342 38.7566 265.845 38.4974 265.392C35.7419 260.578 31.7892 256.076 27.0664 252.373C24.6405 250.471 22.0085 248.781 19.253 247.34C21.9176 247.763 24.5843 248.147 27.2514 248.492C30.2302 253.548 34.4213 258.27 39.4005 262.173C44.5307 266.195 50.5047 269.355 56.6769 271.312C57.2115 271.481 57.7541 271.38 58.0726 271.052C58.3911 270.724 58.4287 270.228 58.1694 269.775C55.1765 264.545 50.8828 259.655 45.7526 255.633C42.7209 253.256 39.3944 251.181 35.9066 249.476C38.8462 249.765 41.7841 250.007 44.7178 250.2C46.801 253.714 49.4298 257.026 52.5415 260.051C52.5869 260.095 52.6343 260.136 52.6835 260.175C53.2498 260.619 54.0457 260.692 54.5377 260.321C55.0724 259.918 55.0457 259.144 54.478 258.592C52.2072 256.384 50.2113 254.014 48.5199 251.518C57.864 255.188 66.1153 261.657 71.4281 269.478C68.4936 268.329 65.6526 266.9 62.9488 265.213C62.2619 264.784 61.4056 264.868 61.0365 265.4C60.6671 265.933 60.9257 266.711 61.6115 267.14C65.5341 269.588 69.7275 271.528 74.0751 272.906C74.6096 273.075 75.1523 272.974 75.4708 272.647C75.7892 272.319 75.8269 271.822 75.5676 271.369C72.5746 266.14 68.2809 261.249 63.1506 257.227C59.8312 254.625 56.1581 252.384 52.3071 250.596C53.2075 250.63 54.1073 250.661 55.0066 250.686C62.0113 253.539 69.5008 255.13 76.7281 255.294ZM12.9908 242.721C15.3094 235.923 20.6277 230.447 27.8093 227.463C25.4908 234.26 20.1726 239.736 12.9908 242.721ZM34.3266 263.476C26.0007 260.138 18.6483 254.374 13.8402 247.415C22.1659 250.752 29.5184 256.517 34.3266 263.476ZM30.3057 245.509C33.0125 237.029 39.6242 230.221 48.6092 226.662C45.9023 235.143 39.2905 241.951 30.3057 245.509ZM54.028 267.882C44.6855 264.212 36.4374 257.745 31.125 249.925C40.4677 253.595 48.7157 260.062 54.028 267.882ZM48.4478 246.552C50.962 238.911 56.9293 232.768 65.0144 229.494C62.4996 237.135 56.533 243.279 48.4478 246.552Z" fill="#FAE18A" fill-opacity="0.65"/>
<path d="M58.8478 262.369L58.7997 262.332C58.1615 261.844 57.2806 261.835 56.8325 262.312C56.3882 262.786 56.5359 263.559 57.1602 264.049C57.1656 264.053 57.1712 264.058 57.1767 264.062L57.2248 264.099C57.863 264.587 58.7437 264.597 59.1919 264.119C59.6401 263.641 59.4878 262.855 58.8478 262.369Z" fill="#FAE18A" fill-opacity="0.65"/>
</g>
<g clip-path="url(#clip2)">
<path d="M1530.6 35.2812C1530.39 35.9481 1530.79 36.7369 1531.48 37.0432L1531.55 37.0774C1532.24 37.3836 1532.97 37.0914 1533.18 36.4246C1533.28 36.0918 1533.24 35.7289 1533.08 35.4105C1532.92 35.0907 1532.65 34.8161 1532.3 34.6626L1532.23 34.6284C1531.54 34.3222 1530.81 34.6144 1530.6 35.2812Z" fill="#FAE18A" fill-opacity="0.65"/>
<path d="M1534.88 26.1525C1528.13 23.1477 1520.91 21.6492 1514 21.819C1513.5 21.8311 1513.1 22.1303 1512.96 22.5907C1512.81 23.051 1512.95 23.5918 1513.32 23.9853C1517.37 28.3527 1522.02 32.0185 1527.16 34.8806C1527.82 35.2521 1528.58 35.0403 1528.86 34.4075C1529.14 33.7748 1528.82 32.9604 1528.15 32.5891C1524.19 30.3822 1520.54 27.6696 1517.25 24.5035C1528.65 25.0039 1540.21 30.154 1549.1 38.6935C1544.99 38.5182 1540.84 37.7437 1536.74 36.3819C1536.04 36.1466 1535.35 36.5193 1535.22 37.2143C1535.08 37.9096 1535.55 38.6637 1536.26 38.8989C1541.6 40.6738 1547.02 41.5071 1552.36 41.376C1552.41 41.3746 1552.47 41.3684 1552.52 41.3598C1553.1 41.6237 1553.68 41.8896 1554.25 42.158C1550.18 42.3162 1546.21 43.1407 1542.55 44.6025C1537.39 46.6628 1532.85 49.9901 1529.43 54.2248C1529.14 54.5916 1529.1 55.1301 1529.34 55.6097C1529.57 56.0893 1530.04 56.4251 1530.54 56.4731C1536.34 57.0272 1542.12 56.231 1547.28 54.1708C1552.27 52.177 1556.68 48.9965 1560.06 44.9552C1563.28 46.559 1566.48 48.2339 1569.64 49.9772C1565.3 50.1626 1561.06 51.0498 1557.16 52.6092C1551.59 54.8328 1546.7 58.4239 1543.01 62.9943C1542.71 63.3612 1542.67 63.8996 1542.91 64.3792C1543.15 64.8588 1543.62 65.1946 1544.12 65.2426C1550.37 65.8406 1556.61 64.9815 1562.18 62.7578C1567.35 60.6917 1571.94 57.4442 1575.53 53.3279C1578.68 55.1724 1581.79 57.0858 1584.86 59.065C1581.17 59.228 1577.58 59.9828 1574.26 61.3065C1569.51 63.203 1565.34 66.2662 1562.19 70.1647C1561.89 70.5314 1561.86 71.0699 1562.09 71.5496C1562.33 72.0294 1562.8 72.365 1563.3 72.413C1568.63 72.9232 1573.96 72.1903 1578.71 70.2937C1583.05 68.5616 1586.9 65.8543 1589.94 62.4286C1591.39 63.4141 1592.83 64.4137 1594.26 65.4289C1594.89 65.8742 1595.69 65.7625 1596.04 65.1793C1596.27 64.804 1596.26 64.3248 1596.05 63.9121C1595.94 63.6836 1595.77 63.4756 1595.54 63.3169C1594.07 62.2709 1592.58 61.2414 1591.09 60.2266C1590.82 54.8795 1589.35 49.374 1586.84 44.2911C1584.29 39.1452 1580.67 34.4248 1576.36 30.6404C1575.95 30.2843 1575.41 30.1703 1574.97 30.3471C1574.53 30.5239 1574.26 30.9601 1574.28 31.469C1574.53 36.8783 1576 42.4573 1578.55 47.6033C1579.85 50.2466 1581.45 52.7763 1583.27 55.126C1581.05 53.7342 1578.81 52.3761 1576.56 51.0531C1576.23 45.3403 1574.64 39.4715 1571.96 34.0462C1569.19 28.4563 1565.25 23.3288 1560.57 19.2181C1560.17 18.862 1559.63 18.7479 1559.19 18.9248C1558.74 19.1016 1558.48 19.5378 1558.5 20.0467C1558.76 25.9224 1560.36 31.9828 1563.13 37.5727C1564.76 40.876 1566.81 44.0177 1569.17 46.8837C1566.64 45.509 1564.09 44.1777 1561.52 42.8912C1561.28 38.9158 1560.45 34.9175 1559.04 30.9958C1559.02 30.9386 1559 30.8832 1558.97 30.8296C1558.67 30.2127 1557.98 29.8454 1557.36 29.9952C1556.69 30.1581 1556.35 30.8702 1556.6 31.5856C1557.63 34.4475 1558.33 37.3529 1558.69 40.2567C1551.94 33.3906 1547.49 24.3999 1546.34 15.2957C1548.46 17.4491 1550.37 19.8202 1552.03 22.3742C1552.45 23.023 1553.26 23.271 1553.85 22.9283C1554.43 22.5854 1554.56 21.7819 1554.14 21.1328C1551.73 17.4278 1548.84 14.0809 1545.54 11.1853C1545.14 10.8292 1544.6 10.7152 1544.16 10.892C1543.71 11.0688 1543.45 11.505 1543.47 12.0139C1543.73 17.8896 1545.33 23.95 1548.1 29.5399C1549.89 33.1568 1552.17 36.5797 1554.82 39.6592C1554.02 39.2872 1553.22 38.9187 1552.42 38.5552C1547.4 33.3164 1541.36 29.0378 1534.88 26.1525ZM1586.78 61.6862C1581.49 66.9728 1574.1 69.9255 1566.19 69.9132C1571.48 64.6267 1578.87 61.674 1586.78 61.6862ZM1577.17 34.7857C1583.15 40.9648 1587.12 48.976 1588.21 57.1079C1582.23 50.929 1578.27 42.9176 1577.17 34.7857ZM1572.39 52.6023C1565.96 59.2682 1556.77 62.9389 1546.95 62.7642C1553.38 56.0983 1562.57 52.4276 1572.39 52.6023ZM1561.37 23.3314C1568.12 30.1967 1572.57 39.1839 1573.72 48.2867C1566.97 41.4213 1562.52 32.4342 1561.37 23.3314ZM1556.43 44.7876C1550.56 50.7651 1542.27 54.0775 1533.4 53.9851C1539.27 48.0079 1547.56 44.6947 1556.43 44.7876Z" fill="#FAE18A" fill-opacity="0.65"/>
<path d="M1554.41 26.5056L1554.44 26.5573C1554.79 27.2422 1555.58 27.584 1556.21 27.3205C1556.84 27.0593 1557.07 26.3016 1556.73 25.6213C1556.73 25.6155 1556.72 25.6094 1556.72 25.6036L1556.69 25.5518C1556.34 24.8669 1555.55 24.5251 1554.92 24.7886C1554.29 25.0521 1554.06 25.8229 1554.41 26.5056Z" fill="#FAE18A" fill-opacity="0.65"/>
</g>
<defs>
<clipPath id="clip0">
<rect width="77.5075" height="58.1265" fill="white" transform="matrix(0.986928 -0.161159 0.198262 0.980149 1215.48 376.458)"/>
</clipPath>
<clipPath id="clip1">
<rect width="74.4384" height="60.8206" fill="white" transform="matrix(0.786968 0.616994 -0.696697 0.717365 42.3733 202.149)"/>
</clipPath>
<clipPath id="clip2">
<rect width="71.2178" height="63.4152" fill="white" transform="matrix(-0.443516 -0.896266 0.928644 -0.370972 1541.11 87.3555)"/>
</clipPath>
</defs>
</svg>
