<svg width="1600" height="476" viewBox="0 0 1600 476" fill="none" xmlns="http://www.w3.org/2000/svg">
<rect width="1600" height="476" fill="#83C3FF" fill-opacity="0.45"/>
<g clip-path="url(#clip0)">
<path d="M1249.57 194.651C1249.36 195.285 1249.85 196.017 1250.69 196.288L1250.78 196.318C1251.61 196.588 1252.47 196.295 1252.69 195.661C1252.8 195.345 1252.73 195.005 1252.53 194.709C1252.33 194.412 1251.99 194.16 1251.57 194.025L1251.48 193.995C1250.65 193.724 1249.79 194.018 1249.57 194.651Z" fill="#FAE18A"/>
<path d="M1254.29 185.945C1246.15 183.29 1237.5 182.065 1229.28 182.404C1228.69 182.428 1228.23 182.72 1228.08 183.157C1227.92 183.594 1228.11 184.1 1228.56 184.461C1233.55 188.469 1239.24 191.8 1245.46 194.363C1246.27 194.696 1247.17 194.476 1247.47 193.873C1247.77 193.271 1247.36 192.512 1246.55 192.179C1241.76 190.204 1237.3 187.744 1233.26 184.847C1246.84 185.024 1260.8 189.575 1271.72 197.386C1266.82 197.328 1261.86 196.705 1256.93 195.529C1256.07 195.326 1255.28 195.694 1255.14 196.352C1255.01 197.01 1255.6 197.708 1256.45 197.912C1262.88 199.445 1269.35 200.09 1275.7 199.828C1275.77 199.826 1275.83 199.818 1275.9 199.809C1276.59 200.042 1277.29 200.278 1277.99 200.516C1273.15 200.77 1268.45 201.649 1264.16 203.12C1258.11 205.193 1252.85 208.443 1248.95 212.519C1248.61 212.872 1248.59 213.38 1248.89 213.826C1249.19 214.271 1249.77 214.575 1250.36 214.607C1257.28 214.98 1264.13 214.08 1270.18 212.007C1276.03 210.001 1281.15 206.892 1285.01 203C1288.91 204.427 1292.77 205.921 1296.6 207.481C1291.45 207.768 1286.45 208.713 1281.87 210.282C1275.33 212.519 1269.66 216.027 1265.45 220.426C1265.11 220.779 1265.09 221.287 1265.39 221.733C1265.69 222.178 1266.27 222.482 1266.86 222.515C1274.32 222.916 1281.72 221.946 1288.25 219.708C1294.32 217.629 1299.65 214.453 1303.75 210.484C1307.57 212.14 1311.34 213.861 1315.07 215.645C1310.7 215.894 1306.45 216.698 1302.56 218.03C1296.99 219.938 1292.15 222.93 1288.56 226.683C1288.22 227.036 1288.2 227.544 1288.5 227.989C1288.8 228.435 1289.38 228.739 1289.97 228.771C1296.34 229.114 1302.64 228.286 1308.22 226.377C1313.3 224.634 1317.78 221.986 1321.25 218.681C1323.02 219.572 1324.77 220.476 1326.52 221.395C1327.28 221.798 1328.23 221.672 1328.62 221.114C1328.88 220.755 1328.85 220.304 1328.59 219.92C1328.44 219.708 1328.23 219.517 1327.96 219.373C1326.16 218.426 1324.35 217.495 1322.53 216.578C1322 211.55 1320.03 206.404 1316.83 201.683C1313.6 196.903 1309.09 192.552 1303.82 189.099C1303.32 188.775 1302.67 188.681 1302.15 188.859C1301.64 189.037 1301.34 189.455 1301.38 189.933C1301.89 195.021 1303.87 200.236 1307.1 205.016C1308.77 207.471 1310.76 209.812 1313.03 211.977C1310.33 210.724 1307.62 209.503 1304.88 208.316C1304.25 202.945 1302.13 197.459 1298.72 192.42C1295.2 187.228 1290.31 182.502 1284.58 178.752C1284.08 178.427 1283.44 178.333 1282.92 178.511C1282.4 178.689 1282.1 179.107 1282.14 179.585C1282.69 185.111 1284.84 190.777 1288.36 195.969C1290.44 199.037 1292.99 201.943 1295.92 204.58C1292.86 203.351 1289.77 202.163 1286.66 201.018C1286.21 197.281 1285.06 193.538 1283.23 189.881C1283.21 189.828 1283.18 189.776 1283.14 189.727C1282.76 189.154 1281.92 188.826 1281.19 188.983C1280.4 189.153 1280.02 189.833 1280.35 190.5C1281.69 193.168 1282.64 195.886 1283.19 198.611C1274.88 192.32 1269.22 183.969 1267.48 175.426C1270.1 177.399 1272.46 179.582 1274.54 181.944C1275.07 182.544 1276.05 182.757 1276.73 182.419C1277.41 182.081 1277.53 181.321 1277.01 180.721C1273.99 177.294 1270.41 174.217 1266.38 171.576C1265.88 171.251 1265.23 171.158 1264.71 171.336C1264.19 171.513 1263.89 171.931 1263.94 172.41C1264.49 177.936 1266.64 183.601 1270.16 188.793C1272.43 192.153 1275.28 195.317 1278.56 198.148C1277.6 197.818 1276.63 197.492 1275.66 197.171C1269.48 192.367 1262.11 188.495 1254.29 185.945ZM1317.47 218.064C1311.39 223.178 1302.72 226.15 1293.31 226.342C1299.39 221.228 1308.06 218.257 1317.47 218.064ZM1304.95 192.982C1312.32 198.646 1317.36 206.087 1318.99 213.716C1311.62 208.052 1306.58 200.611 1304.95 192.982ZM1299.98 209.882C1292.6 216.325 1281.82 220.019 1270.13 220.108C1277.52 213.665 1288.3 209.971 1299.98 209.882ZM1285.69 182.604C1294 188.894 1299.65 197.242 1301.39 205.784C1293.08 199.494 1287.43 191.146 1285.69 182.604ZM1280.68 202.936C1273.94 208.716 1264.21 212.049 1253.66 212.191C1260.4 206.411 1270.13 203.077 1280.68 202.936Z" fill="#FAE18A"/>
<path d="M1277.54 185.773L1277.58 185.821C1278.02 186.457 1278.98 186.758 1279.72 186.494C1280.45 186.232 1280.69 185.512 1280.26 184.88C1280.26 184.875 1280.26 184.869 1280.25 184.864L1280.22 184.816C1279.78 184.18 1278.82 183.879 1278.08 184.143C1277.34 184.407 1277.1 185.139 1277.54 185.773Z" fill="#FAE18A"/>
</g>
<g clip-path="url(#clip1)">
<path d="M998.96 340.96C998.295 340.821 997.502 341.065 997.188 341.504L997.153 341.553C996.839 341.992 997.123 342.459 997.788 342.598C998.12 342.666 998.484 342.64 998.804 342.542C999.125 342.444 999.403 342.273 999.561 342.053L999.596 342.004C999.909 341.566 999.625 341.098 998.96 340.96Z" fill="#FAE18A" fill-opacity="0.5"/>
<path d="M1008.05 343.773C1011.13 339.487 1012.7 334.883 1012.61 330.46C1012.6 330.146 1012.31 329.886 1011.85 329.79C1011.39 329.694 1010.85 329.779 1010.45 330.008C1006.04 332.559 1002.32 335.503 999.399 338.76C999.02 339.183 999.223 339.673 999.853 339.854C1000.48 340.035 1001.3 339.84 1001.68 339.417C1003.93 336.906 1006.69 334.592 1009.89 332.517C1009.26 339.802 1003.98 347.149 995.344 352.758C995.565 350.129 996.385 347.486 997.792 344.877C998.035 344.426 997.67 343.986 996.976 343.894C996.282 343.802 995.522 344.094 995.279 344.544C993.445 347.944 992.552 351.4 992.625 354.816C992.626 354.852 992.631 354.887 992.639 354.921C992.369 355.288 992.097 355.654 991.822 356.02C991.708 353.417 990.927 350.867 989.504 348.515C987.5 345.2 984.221 342.272 980.021 340.048C979.658 339.855 979.119 339.827 978.637 339.974C978.155 340.122 977.814 340.419 977.76 340.74C977.142 344.438 977.876 348.144 979.88 351.459C981.82 354.667 984.954 357.513 988.96 359.709C987.32 361.756 985.61 363.784 983.831 365.79C983.693 363.014 982.852 360.297 981.334 357.788C979.171 354.21 975.632 351.05 971.1 348.65C970.736 348.457 970.198 348.428 969.715 348.576C969.233 348.723 968.892 349.021 968.838 349.341C968.172 353.332 968.963 357.333 971.127 360.911C973.137 364.236 976.336 367.199 980.414 369.528C978.535 371.523 976.586 373.494 974.573 375.439C974.45 373.083 973.734 370.777 972.446 368.648C970.601 365.596 967.582 362.901 963.716 360.853C963.353 360.66 962.814 360.631 962.332 360.779C961.849 360.927 961.508 361.224 961.455 361.545C960.886 364.949 961.561 368.361 963.407 371.413C965.092 374.2 967.758 376.688 971.152 378.659C970.15 379.578 969.135 380.492 968.103 381.398C967.651 381.796 967.754 382.306 968.334 382.537C968.707 382.686 969.186 382.683 969.601 382.556C969.831 382.486 970.041 382.377 970.202 382.235C971.265 381.302 972.311 380.36 973.343 379.413C978.695 379.288 984.219 378.398 989.331 376.834C994.507 375.251 999.269 372.975 1003.1 370.254C1003.46 369.998 1003.58 369.654 1003.41 369.369C1003.24 369.085 1002.81 368.91 1002.3 368.92C996.882 369.027 991.284 369.921 986.108 371.505C983.45 372.318 980.901 373.315 978.531 374.46C979.948 373.054 981.331 371.635 982.679 370.204C988.398 370.042 994.286 369.079 999.743 367.409C1005.37 365.689 1010.54 363.217 1014.7 360.261C1015.06 360.005 1015.18 359.661 1015.01 359.376C1014.84 359.092 1014.41 358.917 1013.9 358.928C1008.02 359.044 1001.93 360.015 996.312 361.735C992.989 362.751 989.824 364.03 986.931 365.517C988.334 363.911 989.694 362.291 991.009 360.66C994.989 360.54 998.998 360.043 1002.94 359.18C1002.99 359.168 1003.05 359.153 1003.1 359.137C1003.72 358.947 1004.1 358.51 1003.96 358.112C1003.8 357.68 1003.09 357.458 1002.37 357.615C999.499 358.245 996.584 358.666 993.675 358.873C1000.62 354.616 1009.66 351.849 1018.78 351.193C1016.6 352.531 1014.21 353.729 1011.64 354.769C1010.98 355.033 1010.73 355.552 1011.06 355.929C1011.4 356.305 1012.2 356.396 1012.86 356.133C1016.59 354.624 1019.97 352.804 1022.9 350.721C1023.26 350.465 1023.38 350.121 1023.21 349.837C1023.04 349.552 1022.61 349.378 1022.1 349.388C1016.22 349.504 1010.14 350.475 1004.51 352.195C1000.87 353.308 997.425 354.736 994.315 356.406C994.696 355.898 995.074 355.388 995.446 354.878C1000.74 351.717 1005.09 347.889 1008.05 343.773ZM971.93 376.649C966.698 373.221 963.825 368.47 963.924 363.412C969.155 366.84 972.028 371.591 971.93 376.649ZM998.947 370.735C992.699 374.508 984.641 376.973 976.494 377.604C982.741 373.831 990.799 371.366 998.947 370.735ZM981.175 367.525C974.576 363.355 971.005 357.449 971.287 351.174C977.885 355.344 981.457 361.25 981.175 367.525ZM1010.58 360.733C1003.64 364.989 994.597 367.755 985.478 368.412C992.42 364.155 1001.46 361.389 1010.58 360.733ZM989.167 357.387C983.251 353.586 980.028 348.256 980.218 342.588C986.133 346.388 989.357 351.719 989.167 357.387Z" fill="#FAE18A" fill-opacity="0.5"/>
<path d="M1007.48 356.258L1007.43 356.274C1006.74 356.492 1006.39 356.997 1006.64 357.402C1006.9 357.804 1007.65 357.957 1008.34 357.748C1008.34 357.746 1008.35 357.744 1008.36 357.742L1008.41 357.726C1009.1 357.508 1009.45 357.003 1009.19 356.598C1008.93 356.193 1008.17 356.038 1007.48 356.258Z" fill="#FAE18A" fill-opacity="0.5"/>
</g>
<defs>
<clipPath id="clip0">
<rect width="71.605" height="73.042" fill="white" transform="matrix(-0.560739 -0.827992 0.946022 -0.324101 1264.18 243.414)"/>
</clipPath>
<clipPath id="clip1">
<rect width="67.1398" height="44.2364" fill="white" transform="matrix(0.956254 -0.292536 0.517469 0.855702 946.749 347.227)"/>
</clipPath>
</defs>
</svg>
