<svg width="1600" height="840" viewBox="0 0 1600 840" fill="none" xmlns="http://www.w3.org/2000/svg">
<g clip-path="url(#clip0)">
<path d="M100.905 704.208C100.785 703.048 99.8645 702.044 98.8481 701.963L98.7347 701.954C97.7184 701.874 96.9914 702.749 97.1112 703.909C97.171 704.487 97.4301 705.027 97.8011 705.433C98.1737 705.84 98.6589 706.113 99.1682 706.153L99.2817 706.162C100.298 706.242 101.025 705.367 100.905 704.208Z" fill="#FAE18A" fill-opacity="0.5"/>
<path d="M100.781 720.909C110.717 721.711 120.393 719.89 128.761 715.642C129.356 715.34 129.681 714.642 129.599 713.841C129.518 713.04 129.044 712.277 128.378 711.873C120.979 707.393 113.23 704.356 105.346 702.848C104.323 702.652 103.508 703.422 103.525 704.568C103.542 705.713 104.386 706.801 105.409 706.996C111.488 708.159 117.481 710.284 123.277 713.328C109.043 719.115 92.0131 717.739 76.3541 709.54C81.4881 707.444 86.9946 706.264 92.7728 706.028C93.7713 705.987 94.3984 705.013 94.1736 703.851C93.9489 702.689 92.9572 701.781 91.9588 701.822C84.4284 702.13 77.3332 703.95 70.8704 707.23C70.8024 707.265 70.739 707.306 70.6781 707.35C69.8235 707.271 68.9688 707.188 68.1139 707.101C73.0062 704.511 77.4111 700.935 81.071 696.548C86.2292 690.364 89.9163 682.563 91.7338 673.988C91.8911 673.245 91.6357 672.383 91.0768 671.772C90.518 671.161 89.7546 670.908 89.114 671.122C81.7161 673.593 75.0796 678.167 69.9214 684.351C64.9296 690.335 61.3158 697.833 59.4408 706.083C54.5981 705.438 49.7515 704.666 44.9071 703.767C50.1135 700.979 54.803 697.155 58.7071 692.475C64.2743 685.801 68.2535 677.382 70.2151 668.126C70.3724 667.384 70.117 666.522 69.5581 665.911C68.9993 665.299 68.2359 665.046 67.5953 665.26C59.6111 667.927 52.4484 672.864 46.8811 679.538C41.7081 685.739 37.9071 693.448 35.8211 701.934C30.9392 700.869 26.0634 699.675 21.2001 698.355C25.6157 695.98 29.5943 692.732 32.9083 688.759C37.6567 683.067 41.051 675.885 42.724 667.991C42.8815 667.248 42.6261 666.387 42.0671 665.775C41.5081 665.164 40.7449 664.911 40.1042 665.125C33.2938 667.399 27.1841 671.611 22.4357 677.303C18.0991 682.501 14.8968 688.944 13.0986 696.035C10.7707 695.334 8.44628 694.606 6.12626 693.847C5.10847 693.514 4.19703 694.146 4.09046 695.259C4.02172 695.976 4.30336 696.717 4.7842 697.243C5.05049 697.535 5.37768 697.76 5.74049 697.878C8.13075 698.66 10.5259 699.41 12.9245 700.132C16.245 708.317 21.1206 716.06 27.0436 722.539C33.0399 729.099 40.1159 734.375 47.5065 737.796C48.2017 738.118 48.9257 737.986 49.3683 737.455C49.811 736.924 49.8937 736.09 49.5811 735.31C46.2586 727.011 41.3329 719.158 35.3364 712.598C32.2562 709.229 28.8897 706.201 25.3433 703.586C28.8371 704.48 32.3363 705.309 35.8384 706.073C39.4401 714.793 44.6663 723.033 50.9884 729.949C57.502 737.074 65.1884 742.805 73.2164 746.522C73.9117 746.844 74.6356 746.711 75.0783 746.18C75.521 745.65 75.6037 744.816 75.291 744.035C71.6822 735.021 66.3316 726.491 59.8178 719.365C55.9685 715.154 51.7095 711.431 47.2127 708.322C51.0789 709.008 54.9459 709.616 58.8105 710.143C61.3308 716.204 64.5857 721.962 68.4977 727.271C68.5547 727.348 68.6147 727.421 68.6771 727.489C69.3961 728.275 70.4433 728.452 71.1181 727.862C71.8516 727.219 71.8676 725.914 71.154 724.945C68.299 721.071 65.8184 716.942 63.7484 712.622C75.8551 719.442 86.3316 730.903 92.8348 744.441C89.0325 742.304 85.3723 739.704 81.9106 736.677C81.0311 735.908 79.8939 735.991 79.3706 736.862C78.8471 737.733 79.1373 739.062 80.0152 739.832C85.0373 744.223 90.451 747.777 96.1059 750.395C96.8012 750.717 97.5251 750.584 97.9678 750.054C98.4104 749.523 98.4932 748.689 98.1805 747.908C94.5717 738.894 89.2209 730.364 82.7071 723.238C78.4925 718.628 73.7864 714.602 68.8151 711.327C70.0029 711.446 71.1902 711.559 72.377 711.664C81.4459 716.947 91.2393 720.138 100.781 720.909ZM17.373 695.377C20.8885 684.085 28.281 675.223 37.971 670.686C34.4557 681.978 27.0632 690.84 17.373 695.377ZM44.1956 731.797C33.4127 725.606 24.0774 715.394 18.1842 703.342C28.967 709.533 38.3024 719.745 44.1956 731.797ZM40.0733 701.256C44.2134 687.155 53.4038 676.138 65.5154 670.757C61.375 684.858 52.1846 695.875 40.0733 701.256ZM69.9429 740.563C57.8384 733.743 47.3658 722.287 40.8631 708.752C52.9679 715.572 63.4404 727.028 69.9429 740.563ZM63.9826 704.252C67.8125 691.552 76.1071 681.61 87.0103 676.647C83.1796 689.347 74.8859 699.29 63.9826 704.252Z" fill="#FAE18A" fill-opacity="0.5"/>
<path d="M76.679 731.607L76.6179 731.541C75.8068 730.674 74.6432 730.599 74.0191 731.373C73.4005 732.14 73.5444 733.454 74.3371 734.321C74.3439 734.328 74.3511 734.336 74.358 734.343L74.4192 734.409C75.2302 735.276 76.3937 735.352 77.0177 734.577C77.6418 733.803 77.4927 732.468 76.679 731.607Z" fill="#FAE18A" fill-opacity="0.5"/>
</g>
<g clip-path="url(#clip1)">
<path d="M1557.15 764.7C1556.49 764.748 1555.88 765.401 1555.8 766.158L1555.79 766.242C1555.71 767 1556.18 767.575 1556.84 767.527C1557.18 767.503 1557.49 767.328 1557.74 767.065C1557.98 766.801 1558.16 766.448 1558.2 766.069L1558.21 765.984C1558.29 765.227 1557.82 764.652 1557.15 764.7Z" fill="#FAE18A" fill-opacity="0.65"/>
<path d="M1566.67 765.392C1567.49 757.99 1566.79 750.689 1564.67 744.278C1564.52 743.822 1564.13 743.554 1563.67 743.586C1563.21 743.619 1562.76 743.946 1562.51 744.429C1559.69 749.802 1557.68 755.488 1556.53 761.33C1556.39 762.088 1556.8 762.726 1557.45 762.754C1558.1 762.782 1558.75 762.19 1558.9 761.432C1559.78 756.927 1561.21 752.522 1563.16 748.296C1565.94 759.149 1564.55 771.836 1559.31 783.252C1558.3 779.338 1557.82 775.177 1557.9 770.847C1557.91 770.099 1557.38 769.595 1556.71 769.722C1556.04 769.848 1555.48 770.557 1555.47 771.305C1555.37 776.948 1556.16 782.319 1557.8 787.271C1557.81 787.323 1557.83 787.372 1557.86 787.419C1557.78 788.055 1557.7 788.691 1557.62 789.327C1556.32 785.576 1554.44 782.153 1552.07 779.258C1548.73 775.179 1544.41 772.141 1539.59 770.474C1539.17 770.33 1538.67 770.49 1538.3 770.886C1537.93 771.282 1537.76 771.844 1537.86 772.331C1539 777.952 1541.37 783.08 1544.71 787.159C1547.95 791.107 1552.09 794.079 1556.73 795.777C1556.19 799.376 1555.58 802.973 1554.89 806.563C1553.49 802.57 1551.47 798.925 1548.94 795.838C1545.34 791.434 1540.68 788.156 1535.47 786.357C1535.05 786.213 1534.55 786.373 1534.18 786.769C1533.82 787.165 1533.64 787.727 1533.74 788.214C1534.98 794.28 1537.54 799.814 1541.14 804.217C1544.49 808.309 1548.75 811.428 1553.52 813.293C1552.74 816.906 1551.88 820.509 1550.95 824.099C1549.76 820.711 1548.05 817.619 1545.9 814.998C1542.82 811.243 1538.85 808.447 1534.41 806.912C1533.99 806.768 1533.49 806.928 1533.12 807.324C1532.75 807.72 1532.58 808.282 1532.68 808.768C1533.73 813.943 1535.91 818.664 1538.99 822.419C1541.8 825.849 1545.36 828.475 1549.34 830.074C1548.86 831.79 1548.36 833.502 1547.84 835.21C1547.61 835.959 1547.94 836.664 1548.57 836.783C1548.98 836.861 1549.41 836.677 1549.73 836.336C1549.9 836.147 1550.04 835.911 1550.13 835.643C1550.66 833.884 1551.17 832.12 1551.67 830.352C1556.46 828.162 1561.05 824.794 1564.95 820.597C1568.91 816.348 1572.17 811.245 1574.39 805.841C1574.6 805.332 1574.55 804.786 1574.26 804.436C1573.98 804.086 1573.5 803.994 1573.05 804.2C1568.19 806.387 1563.54 809.789 1559.58 814.038C1557.55 816.221 1555.7 818.63 1554.08 821.188C1554.72 818.607 1555.32 816.02 1555.88 813.428C1560.98 811.048 1565.87 807.435 1570.04 802.955C1574.34 798.339 1577.88 792.797 1580.29 786.926C1580.5 786.418 1580.45 785.872 1580.16 785.522C1579.87 785.171 1579.4 785.08 1578.95 785.285C1573.68 787.661 1568.62 791.356 1564.32 795.972C1561.78 798.7 1559.5 801.751 1557.57 805.003C1558.1 802.136 1558.59 799.266 1559.02 796.394C1562.57 794.727 1565.97 792.499 1569.14 789.764C1569.19 789.724 1569.23 789.682 1569.27 789.638C1569.75 789.128 1569.88 788.352 1569.57 787.826C1569.23 787.254 1568.49 787.195 1567.91 787.694C1565.6 789.69 1563.15 791.397 1560.62 792.79C1564.94 783.981 1571.85 776.557 1579.81 772.18C1578.45 774.947 1576.84 777.591 1574.99 780.071C1574.52 780.701 1574.52 781.554 1575 781.977C1575.48 782.4 1576.25 782.23 1576.72 781.602C1579.4 778.003 1581.62 774.082 1583.32 769.947C1583.53 769.439 1583.48 768.892 1583.19 768.542C1582.9 768.192 1582.43 768.1 1581.98 768.306C1576.71 770.682 1571.65 774.377 1567.35 778.993C1564.57 781.979 1562.11 785.354 1560.06 788.955C1560.17 788.071 1560.28 787.187 1560.38 786.303C1563.72 779.71 1565.89 772.501 1566.67 765.392ZM1549.12 826.854C1542.8 823.82 1538.01 817.973 1535.77 810.563C1542.09 813.598 1546.88 819.444 1549.12 826.854ZM1570.85 808.102C1566.93 815.944 1560.77 822.559 1553.69 826.533C1557.61 818.691 1563.77 812.076 1570.85 808.102ZM1553.28 810.088C1545.39 806.486 1539.44 799.217 1536.8 789.966C1544.7 793.569 1550.65 800.838 1553.28 810.088ZM1576.77 789.161C1572.45 797.968 1565.54 805.389 1557.59 809.767C1561.91 800.959 1568.82 793.538 1576.77 789.161ZM1555.85 792.315C1548.75 788.995 1543.37 782.435 1540.93 774.102C1548.04 777.423 1553.41 783.982 1555.85 792.315Z" fill="#FAE18A" fill-opacity="0.65"/>
<path d="M1571.91 783.801L1571.87 783.845C1571.34 784.42 1571.26 785.288 1571.68 785.782C1572.09 786.272 1572.85 786.212 1573.37 785.65C1573.38 785.645 1573.38 785.64 1573.38 785.635L1573.42 785.592C1573.95 785.016 1574.03 784.149 1573.61 783.655C1573.19 783.16 1572.43 783.224 1571.91 783.801Z" fill="#FAE18A" fill-opacity="0.65"/>
</g>
<g clip-path="url(#clip2)">
<path d="M1147.5 750.322C1147.32 751.058 1147.66 751.928 1148.26 752.266L1148.32 752.303C1148.92 752.641 1149.55 752.319 1149.73 751.583C1149.82 751.216 1149.78 750.816 1149.64 750.465C1149.51 750.112 1149.27 749.809 1148.97 749.64L1148.91 749.602C1148.31 749.265 1147.68 749.587 1147.5 750.322Z" fill="#FAE18A" fill-opacity="0.65"/>
<path d="M1151.2 740.254C1145.36 736.94 1139.12 735.287 1133.13 735.474C1132.71 735.488 1132.36 735.818 1132.23 736.326C1132.11 736.833 1132.23 737.43 1132.54 737.864C1136.05 742.681 1140.08 746.724 1144.52 749.88C1145.1 750.29 1145.76 750.057 1145.99 749.359C1146.23 748.661 1145.96 747.763 1145.38 747.353C1141.96 744.919 1138.79 741.927 1135.95 738.435C1145.81 738.987 1155.82 744.667 1163.51 754.086C1159.95 753.892 1156.36 753.038 1152.82 751.536C1152.2 751.277 1151.61 751.688 1151.5 752.454C1151.38 753.221 1151.78 754.053 1152.39 754.312C1157.02 756.27 1161.7 757.189 1166.33 757.044C1166.38 757.043 1166.42 757.036 1166.47 757.027C1166.97 757.318 1167.47 757.611 1167.97 757.907C1164.44 758.081 1161 758.991 1157.84 760.603C1153.37 762.875 1149.45 766.545 1146.49 771.216C1146.23 771.62 1146.2 772.214 1146.4 772.743C1146.61 773.272 1147.02 773.642 1147.45 773.695C1152.46 774.306 1157.47 773.428 1161.93 771.156C1166.25 768.957 1170.07 765.449 1172.99 760.992C1175.78 762.761 1178.55 764.608 1181.28 766.531C1177.53 766.735 1173.86 767.714 1170.48 769.434C1165.67 771.886 1161.43 775.847 1158.23 780.888C1157.98 781.292 1157.95 781.886 1158.15 782.415C1158.36 782.944 1158.76 783.315 1159.2 783.367C1164.61 784.027 1170.01 783.079 1174.83 780.627C1179.3 778.348 1183.28 774.766 1186.38 770.226C1189.1 772.261 1191.79 774.371 1194.45 776.554C1191.26 776.734 1188.15 777.566 1185.28 779.026C1181.17 781.118 1177.56 784.496 1174.84 788.796C1174.58 789.201 1174.55 789.795 1174.75 790.324C1174.96 790.853 1175.36 791.223 1175.8 791.276C1180.41 791.838 1185.02 791.03 1189.13 788.938C1192.88 787.028 1196.22 784.042 1198.85 780.264C1200.1 781.351 1201.35 782.453 1202.59 783.573C1203.13 784.064 1203.82 783.941 1204.13 783.298C1204.33 782.884 1204.32 782.355 1204.14 781.9C1204.04 781.648 1203.89 781.419 1203.7 781.243C1202.42 780.09 1201.14 778.954 1199.84 777.835C1199.61 771.938 1198.34 765.866 1196.16 760.259C1193.96 754.584 1190.83 749.378 1187.1 745.204C1186.75 744.811 1186.28 744.685 1185.9 744.88C1185.51 745.075 1185.28 745.556 1185.3 746.118C1185.51 752.084 1186.79 758.237 1188.99 763.913C1190.12 766.828 1191.5 769.618 1193.08 772.21C1191.16 770.674 1189.22 769.177 1187.27 767.718C1186.98 761.417 1185.61 754.944 1183.29 748.96C1180.89 742.795 1177.49 737.14 1173.44 732.606C1173.09 732.213 1172.62 732.087 1172.24 732.282C1171.85 732.477 1171.62 732.958 1171.64 733.52C1171.87 740 1173.25 746.684 1175.65 752.85C1177.06 756.493 1178.83 759.958 1180.88 763.119C1178.69 761.603 1176.48 760.134 1174.26 758.715C1174.05 754.331 1173.33 749.921 1172.11 745.596C1172.1 745.533 1172.07 745.472 1172.05 745.413C1171.79 744.732 1171.19 744.327 1170.66 744.492C1170.07 744.672 1169.78 745.457 1170 746.246C1170.89 749.403 1171.49 752.607 1171.81 755.81C1165.96 748.237 1162.11 738.321 1161.12 728.28C1162.95 730.655 1164.6 733.27 1166.04 736.087C1166.41 736.802 1167.11 737.076 1167.62 736.698C1168.12 736.32 1168.24 735.434 1167.87 734.718C1165.79 730.631 1163.28 726.94 1160.43 723.746C1160.08 723.354 1159.61 723.228 1159.23 723.423C1158.85 723.618 1158.62 724.099 1158.64 724.66C1158.86 731.141 1160.25 737.825 1162.64 743.99C1164.19 747.979 1166.16 751.754 1168.46 755.151C1167.77 754.741 1167.07 754.334 1166.38 753.933C1162.04 748.155 1156.81 743.436 1151.2 740.254ZM1196.12 779.445C1191.54 785.276 1185.14 788.532 1178.3 788.519C1182.87 782.688 1189.27 779.432 1196.12 779.445ZM1187.8 749.776C1192.98 756.591 1196.41 765.427 1197.36 774.395C1192.18 767.581 1188.75 758.745 1187.8 749.776ZM1183.66 769.426C1178.1 776.778 1170.14 780.827 1161.65 780.634C1167.21 773.282 1175.17 769.233 1183.66 769.426ZM1174.12 737.143C1179.97 744.714 1183.82 754.627 1184.81 764.666C1178.97 757.094 1175.12 747.182 1174.12 737.143ZM1169.85 760.807C1164.77 767.4 1157.6 771.053 1149.92 770.951C1155 764.359 1162.17 760.705 1169.85 760.807Z" fill="#FAE18A" fill-opacity="0.65"/>
<path d="M1168.1 740.643L1168.13 740.701C1168.43 741.456 1169.12 741.833 1169.66 741.542C1170.2 741.254 1170.4 740.419 1170.11 739.668C1170.11 739.662 1170.11 739.655 1170.1 739.649L1170.08 739.592C1169.78 738.836 1169.09 738.459 1168.54 738.75C1168 739.04 1167.8 739.891 1168.1 740.643Z" fill="#FAE18A" fill-opacity="0.65"/>
</g>
<g clip-path="url(#clip3)">
<path d="M1147.5 38.9125C1147.32 39.648 1147.66 40.5179 1148.26 40.8558L1148.32 40.8935C1148.92 41.2312 1149.55 40.909 1149.73 40.1735C1149.82 39.8065 1149.78 39.4062 1149.64 39.0551C1149.51 38.7024 1149.27 38.3995 1148.97 38.2301L1148.91 38.1925C1148.31 37.8548 1147.68 38.177 1147.5 38.9125Z" fill="#FAE18A" fill-opacity="0.65"/>
<path d="M1151.2 28.8443C1145.36 25.5303 1139.12 23.8775 1133.13 24.0647C1132.71 24.0781 1132.36 24.4081 1132.23 24.9158C1132.11 25.4235 1132.23 26.02 1132.54 26.454C1136.05 31.271 1140.08 35.314 1144.52 38.4707C1145.1 38.8805 1145.76 38.6468 1145.99 37.9489C1146.23 37.2511 1145.96 36.3529 1145.38 35.9434C1141.96 33.5093 1138.79 30.5175 1135.95 27.0256C1145.81 27.5774 1155.82 33.2576 1163.51 42.6761C1159.95 42.4827 1156.36 41.6285 1152.82 40.1266C1152.2 39.867 1151.61 40.2781 1151.5 41.0446C1151.38 41.8115 1151.78 42.6432 1152.39 42.9026C1157.02 44.8602 1161.7 45.7792 1166.33 45.6346C1166.38 45.6331 1166.42 45.6263 1166.47 45.6168C1166.97 45.9079 1167.47 46.2011 1167.97 46.4971C1164.44 46.6716 1161 47.581 1157.84 49.1933C1153.37 51.4656 1149.45 55.1354 1146.49 59.8059C1146.23 60.2105 1146.2 60.8044 1146.4 61.3334C1146.61 61.8623 1147.02 62.2327 1147.45 62.2855C1152.46 62.8967 1157.47 62.0186 1161.93 59.7463C1166.25 57.5473 1170.07 54.0395 1172.99 49.5822C1175.78 51.351 1178.55 53.1983 1181.28 55.1212C1177.53 55.3256 1173.86 56.3042 1170.48 58.024C1165.67 60.4765 1161.43 64.4371 1158.23 69.478C1157.98 69.8826 1157.95 70.4765 1158.15 71.0055C1158.36 71.5344 1158.76 71.9048 1159.2 71.9577C1164.61 72.6172 1170.01 71.6697 1174.83 69.2172C1179.3 66.9383 1183.28 63.3566 1186.38 58.8166C1189.1 60.8511 1191.79 62.9613 1194.45 65.1442C1191.26 65.3241 1188.15 66.1565 1185.28 67.6164C1181.17 69.7082 1177.56 73.0866 1174.84 77.3864C1174.58 77.7909 1174.55 78.3848 1174.75 78.9139C1174.96 79.443 1175.36 79.8132 1175.8 79.866C1180.41 80.4288 1185.02 79.6205 1189.13 77.5287C1192.88 75.6183 1196.22 72.6324 1198.85 68.8541C1200.1 69.941 1201.35 71.0435 1202.59 72.1631C1203.13 72.6543 1203.82 72.5311 1204.13 71.8879C1204.33 71.474 1204.32 70.9454 1204.14 70.4903C1204.04 70.2383 1203.89 70.0088 1203.7 69.8338C1202.42 68.6802 1201.14 67.5446 1199.84 66.4254C1199.61 60.5279 1198.34 54.4558 1196.16 48.8497C1193.96 43.1742 1190.83 37.968 1187.1 33.7941C1186.75 33.4014 1186.28 33.2756 1185.9 33.4706C1185.51 33.6656 1185.28 34.1467 1185.3 34.708C1185.51 40.674 1186.79 46.8272 1188.99 52.5029C1190.12 55.4183 1191.5 58.2083 1193.08 60.7999C1191.16 59.2648 1189.22 57.7669 1187.27 56.3078C1186.98 50.007 1185.61 43.5342 1183.29 37.5504C1180.89 31.3852 1177.49 25.73 1173.44 21.1961C1173.09 20.8034 1172.62 20.6776 1172.24 20.8726C1171.85 21.0676 1171.62 21.5488 1171.64 22.11C1171.87 28.5905 1173.25 35.2746 1175.65 41.4399C1177.06 45.0832 1178.83 48.5482 1180.88 51.7092C1178.69 50.1931 1176.48 48.7247 1174.26 47.3058C1174.05 42.9213 1173.33 38.5114 1172.11 34.1861C1172.1 34.123 1172.07 34.0619 1172.05 34.0028C1171.79 33.3223 1171.19 32.9172 1170.66 33.0825C1170.07 33.2622 1169.78 34.0476 1170 34.8366C1170.89 37.9931 1171.49 41.1975 1171.81 44.4002C1165.96 36.8273 1162.11 26.9114 1161.12 16.8701C1162.95 19.2451 1164.6 21.8603 1166.04 24.6771C1166.41 25.3926 1167.11 25.6662 1167.62 25.2882C1168.12 24.9101 1168.24 24.0238 1167.87 23.308C1165.79 19.2216 1163.28 15.5303 1160.43 12.3366C1160.08 11.9439 1159.61 11.8181 1159.23 12.0131C1158.85 12.2081 1158.62 12.6893 1158.64 13.2505C1158.86 19.7309 1160.25 26.4151 1162.64 32.5804C1164.19 36.5695 1166.16 40.3447 1168.46 43.7411C1167.77 43.3308 1167.07 42.9244 1166.38 42.5235C1162.04 36.7456 1156.81 32.0266 1151.2 28.8443ZM1196.12 68.0352C1191.54 73.866 1185.14 77.1225 1178.3 77.109C1182.87 71.2783 1189.27 68.0218 1196.12 68.0352ZM1187.8 38.3661C1192.98 45.1811 1196.41 54.0169 1197.36 62.9857C1192.18 56.1708 1188.75 47.3349 1187.8 38.3661ZM1183.66 58.0164C1178.1 65.3684 1170.14 69.4169 1161.65 69.2242C1167.21 61.8722 1175.17 57.8237 1183.66 58.0164ZM1174.12 25.7328C1179.97 33.3047 1183.82 43.217 1184.81 53.2567C1178.97 45.6846 1175.12 35.7725 1174.12 25.7328ZM1169.85 49.3974C1164.77 55.9901 1157.6 59.6434 1149.92 59.5416C1155 52.9491 1162.17 49.295 1169.85 49.3974Z" fill="#FAE18A" fill-opacity="0.65"/>
<path d="M1168.1 29.2337L1168.13 29.2908C1168.43 30.0461 1169.12 30.4231 1169.66 30.1325C1170.2 29.8445 1170.4 29.0088 1170.11 28.2584C1170.11 28.252 1170.11 28.2452 1170.1 28.2388L1170.08 28.1817C1169.78 27.4264 1169.09 27.0493 1168.54 27.34C1168 27.6306 1167.8 28.4807 1168.1 29.2337Z" fill="#FAE18A" fill-opacity="0.65"/>
</g>
<defs>
<clipPath id="clip0">
<rect width="110.24" height="91.9474" fill="white" transform="matrix(0.674705 0.738087 -0.640582 0.767889 58.8997 629.039)"/>
</clipPath>
<clipPath id="clip1">
<rect width="72.0144" height="60.2133" fill="white" transform="matrix(0.681438 -0.731876 0.633625 0.77364 1512.77 793.417)"/>
</clipPath>
<clipPath id="clip2">
<rect width="75.5198" height="57.1862" fill="white" transform="matrix(-0.361938 -0.932202 0.891144 -0.453721 1156.59 807.756)"/>
</clipPath>
<clipPath id="clip3">
<rect width="75.5198" height="57.1862" fill="white" transform="matrix(-0.361938 -0.932202 0.891144 -0.453721 1156.59 96.3464)"/>
</clipPath>
</defs>
</svg>
