<svg width="20" height="20" viewBox="0 0 20 20" fill="none" xmlns="http://www.w3.org/2000/svg">
<path d="M14.5862 0H5.41382C2.42859 0 0 2.42859 0 5.41382V14.5863C0 17.5714 2.42859 20 5.41382 20H14.5863C17.5714 20 20 17.5714 20 14.5863V5.41382C20 2.42859 17.5714 0 14.5862 0V0ZM18.8275 14.5863C18.8275 16.9249 16.9249 18.8275 14.5862 18.8275H5.41382C3.0751 18.8275 1.17249 16.9249 1.17249 14.5863V5.41382C1.17249 3.0751 3.0751 1.17249 5.41382 1.17249H14.5863C16.9249 1.17249 18.8275 3.0751 18.8275 5.41382V14.5863Z" fill="black"/>
<path d="M12.0505 6.32678H12.9634V4.73691C12.8059 4.71525 12.2643 4.6665 11.6335 4.6665C10.3173 4.6665 9.41576 5.49435 9.41576 7.01589V8.41619H7.96338V10.1935H9.41576V14.6657H11.1964V10.194H12.5901L12.8113 8.41661H11.196V7.19213C11.1964 6.67842 11.3348 6.32678 12.0505 6.32678V6.32678Z" stroke="black" stroke-width="0.8"/>
</svg>
