<svg width="51" height="52" viewBox="0 0 51 52" fill="none" xmlns="http://www.w3.org/2000/svg">
<g clip-path="url(#clip0)">
<path d="M25.3701 48.2886C24.6594 48.2886 23.9742 48.0249 23.4402 47.5458C21.4235 45.7396 19.4792 44.0422 17.7637 42.5449L17.7549 42.5371C12.7255 38.1471 8.38239 34.356 5.36054 30.6214C1.98257 26.4464 0.40918 22.4879 0.40918 18.1635C0.40918 13.9619 1.81575 10.0857 4.36951 7.24839C6.95374 4.37753 10.4997 2.79639 14.3553 2.79639C17.2369 2.79639 19.876 3.72954 22.199 5.56972C23.3713 6.49859 24.4339 7.63539 25.3701 8.96139C26.3067 7.63539 27.369 6.49859 28.5417 5.56972C30.8646 3.72954 33.5037 2.79639 36.3854 2.79639C40.2406 2.79639 43.7869 4.37753 46.3711 7.24839C48.9249 10.0857 50.3311 13.9619 50.3311 18.1635C50.3311 22.4879 48.7581 26.4464 45.3801 30.621C42.3582 34.356 38.0155 38.1468 32.9868 42.5363C31.2683 44.0359 29.3209 45.7361 27.2996 47.5466C26.766 48.0249 26.0805 48.2886 25.3701 48.2886ZM14.3553 5.7917C11.3262 5.7917 8.5435 7.02993 6.51916 9.27856C4.46472 11.5611 3.33315 14.7164 3.33315 18.1635C3.33315 21.8005 4.65288 25.0533 7.61189 28.7102C10.4719 32.2451 14.7258 35.9582 19.6513 40.2577L19.6604 40.2655C21.3824 41.7686 23.3344 43.4726 25.3659 45.2921C27.4097 43.4691 29.3647 41.7624 31.0901 40.2569C36.0152 35.9574 40.2688 32.2451 43.1288 28.7102C46.0874 25.0533 47.4071 21.8005 47.4071 18.1635C47.4071 14.7164 46.2755 11.5611 44.2211 9.27856C42.1971 7.02993 39.4141 5.7917 36.3854 5.7917C34.1664 5.7917 32.1291 6.51419 30.3302 7.9389C28.7271 9.20912 27.6104 10.8148 26.9557 11.9384C26.619 12.5161 26.0264 12.861 25.3701 12.861C24.7139 12.861 24.1212 12.5161 23.7846 11.9384C23.1302 10.8148 22.0135 9.20912 20.41 7.9389C18.6111 6.51419 16.5738 5.7917 14.3553 5.7917Z" fill="black"/>
</g>
<defs>
<clipPath id="clip0">
<rect width="49.922" height="51.1333" fill="white" transform="translate(0.40918)"/>
</clipPath>
</defs>
</svg>
