<svg width="51" height="52" viewBox="0 0 51 52" fill="none" xmlns="http://www.w3.org/2000/svg">
<g clip-path="url(#clip0)">
<path d="M16.2723 27.2161C14.9405 27.2161 13.8567 26.106 13.8567 24.7419H12.2463C12.2463 27.0157 14.0524 28.8656 16.2723 28.8656C18.4922 28.8656 20.2983 27.0157 20.2983 24.7419H18.6879C18.6879 26.106 17.6041 27.2161 16.2723 27.2161Z" fill="black"/>
<path d="M33.9867 28.8656C36.2066 28.8656 38.0126 27.0157 38.0126 24.7419H36.4022C36.4022 26.106 35.3184 27.2161 33.9867 27.2161C32.6549 27.2161 31.5711 26.106 31.5711 24.7419H29.9607C29.9607 27.0157 31.7667 28.8656 33.9867 28.8656Z" fill="black"/>
<path d="M43.6489 19.0348V18.1441C43.6489 15.3103 37.1485 14.1136 33.2739 13.6526L33.0888 15.2905C39.7847 16.088 42.0385 17.5841 42.0385 18.1441C42.0385 19.2632 36.0704 21.443 25.1294 21.443C14.1884 21.443 8.22036 19.2632 8.22036 18.1441C8.22036 17.5841 10.4741 16.088 17.1701 15.2905L16.9849 13.6526C13.1103 14.1136 6.60997 15.3103 6.60997 18.1441V19.0348C3.88278 19.4372 1.77881 21.8397 1.77881 24.7419C1.77881 27.6516 3.89244 30.0581 6.62849 30.4524C6.90789 37.6333 11.0989 43.8006 17.0775 46.7697V51.1333H18.6879V47.474C20.6952 48.2385 22.8652 48.6591 25.1294 48.6591C27.3936 48.6591 29.5636 48.2385 31.571 47.474V51.1333H33.1814V46.7697C39.1599 43.8006 43.3509 37.6333 43.6303 30.4515C46.3664 30.0581 48.48 27.6516 48.48 24.7419C48.48 21.8397 46.3761 19.4372 43.6489 19.0348ZM6.60997 28.7823C4.77493 28.3988 3.3892 26.7328 3.3892 24.7419C3.3892 22.751 4.77493 21.0851 6.60997 20.7016V28.7823ZM42.0385 29.6903C42.0385 39.2407 34.4536 47.0097 25.1294 47.0097C15.8053 47.0097 8.22036 39.2407 8.22036 29.6903V20.3519C11.7286 22.4673 20.1517 23.0925 25.1294 23.0925C30.1071 23.0925 38.5303 22.4673 42.0385 20.3519V29.6903ZM43.6489 28.7823V20.7016C45.4839 21.0851 46.8696 22.7502 46.8696 24.7419C46.8696 26.7336 45.4839 28.3988 43.6489 28.7823Z" fill="black"/>
<path d="M20.2981 12.9507V14.8452H18.6878V16.4946H20.2981V19.7935H29.9605V16.4946H31.5709V14.8452H29.9605V12.9507C31.5008 11.5405 32.376 9.54791 32.376 7.42258C32.376 3.33026 29.1247 0 25.1293 0C21.1339 0 17.8826 3.33026 17.8826 7.42258C17.8826 9.54791 18.7578 11.5405 20.2981 12.9507ZM28.3501 18.1441H21.9085V16.4946H28.3501V18.1441ZM24.3241 7.42258C24.3241 6.96815 24.6856 6.59785 25.1293 6.59785C25.573 6.59785 25.9345 6.96815 25.9345 7.42258C25.9345 7.877 25.573 8.24731 25.1293 8.24731C24.6856 8.24731 24.3241 7.877 24.3241 7.42258ZM25.1293 1.64946C28.2374 1.64946 30.7657 4.23912 30.7657 7.42258C30.7657 9.17925 29.9951 10.8213 28.6512 11.9256L28.3501 12.173V14.8452H25.9345V9.74502C26.8693 9.40358 27.5449 8.49638 27.5449 7.42258C27.5449 6.05847 26.4611 4.94838 25.1293 4.94838C23.7975 4.94838 22.7137 6.05847 22.7137 7.42258C22.7137 8.49638 23.3893 9.40358 24.3241 9.74502V14.8452H21.9085V12.173L21.6074 11.9256C20.2635 10.8213 19.493 9.17925 19.493 7.42258C19.493 4.23912 22.0213 1.64946 25.1293 1.64946Z" fill="black"/>
<path d="M38.8177 6.5979H33.9866V8.24736H38.8177V6.5979Z" fill="black"/>
<path d="M38.2666 3.25425L37.7571 1.68958L32.9261 3.34002L33.4356 4.9047L38.2666 3.25425Z" fill="black"/>
<path d="M32.9263 11.5028L37.7578 13.1522L38.267 11.5874L33.4355 9.93795L32.9263 11.5028Z" fill="black"/>
<path d="M16.2723 6.5979H11.4412V8.24736H16.2723V6.5979Z" fill="black"/>
<path d="M17.3321 3.3412L12.5005 1.69177L11.9913 3.25661L16.8229 4.90605L17.3321 3.3412Z" fill="black"/>
<path d="M11.9915 11.5889L12.501 13.1536L17.332 11.5031L16.8224 9.93844L11.9915 11.5889Z" fill="black"/>
</g>
<defs>
<clipPath id="clip0">
<rect width="49.922" height="51.1333" fill="white" transform="translate(0.168457)"/>
</clipPath>
</defs>
</svg>
