<svg width="20" height="20" viewBox="0 0 20 20" fill="none" xmlns="http://www.w3.org/2000/svg">
<path d="M14.5862 0H5.41381C2.42858 0 0 2.42858 0 5.41381V14.5863C0 17.5714 2.42858 20 5.41381 20H14.5863C17.5714 20 20 17.5714 20 14.5863V5.41381C20 2.42858 17.5714 0 14.5862 0V0ZM18.8275 14.5863C18.8275 16.9249 16.9249 18.8275 14.5862 18.8275H5.41381C3.0751 18.8275 1.17248 16.9249 1.17248 14.5863V5.41381C1.17248 3.0751 3.0751 1.17248 5.41381 1.17248H14.5863C16.9249 1.17248 18.8275 3.0751 18.8275 5.41381V14.5863Z" fill="black"/>
<path d="M10.2815 5.53125C7.66229 5.53125 5.53149 7.66205 5.53149 10.2813C5.53149 12.9005 7.66229 15.0313 10.2815 15.0313C12.9007 15.0313 15.0315 12.9005 15.0315 10.2813C15.0315 7.66205 12.9007 5.53125 10.2815 5.53125ZM10.2815 14.0128C8.22399 14.0128 6.54991 12.3389 6.54991 10.2813C6.54991 8.22374 8.22399 6.54967 10.2815 6.54967C12.3391 6.54967 14.0131 8.22374 14.0131 10.2813C14.0131 12.3389 12.3391 14.0128 10.2815 14.0128Z" fill="black"/>
<path d="M15.5993 2.58923C14.7082 2.58923 13.9834 3.31418 13.9834 4.20514C13.9834 5.09625 14.7082 5.82119 15.5993 5.82119C16.4904 5.82119 17.2154 5.09625 17.2154 4.20514C17.2154 3.31402 16.4904 2.58923 15.5993 2.58923ZM15.5993 4.64856C15.3549 4.64856 15.1559 4.44958 15.1559 4.20514C15.1559 3.96054 15.3549 3.76172 15.5993 3.76172C15.8439 3.76172 16.0429 3.96054 16.0429 4.20514C16.0429 4.44958 15.8439 4.64856 15.5993 4.64856Z" fill="black"/>
</svg>
