<svg width="51" height="52" viewBox="0 0 51 52" fill="none" xmlns="http://www.w3.org/2000/svg">
<g clip-path="url(#clip0)">
<path d="M13.2724 50.9551C13.9183 51.3102 14.7192 51.1198 15.1478 50.5144L38.5486 17.4577C38.8713 17.0019 38.9172 16.3991 38.6674 15.8975C38.4176 15.396 37.9142 15.0802 37.3646 15.0802H31.1636L38.6208 2.26494C38.8903 1.80204 38.8961 1.22659 38.6362 0.758008C38.3764 0.289421 37.8907 0 37.3646 0H19.814C19.1423 0 18.557 0.468587 18.3947 1.13611L12.5445 25.2046C12.4358 25.652 12.5343 26.1258 12.8114 26.489C13.0886 26.8524 13.5136 27.0646 13.9637 27.0646H20.6317L12.5937 49.1109C12.3376 49.813 12.6276 50.6009 13.2724 50.9551ZM24.1092 26.0907C24.277 25.6308 24.2139 25.1158 23.9406 24.7125C23.6673 24.3091 23.2184 24.0685 22.7391 24.0685H15.8351L20.957 2.99608H34.7903L27.3331 15.8113C27.0637 16.2742 27.0578 16.8496 27.3178 17.3182C27.5776 17.7868 28.0633 18.0762 28.5894 18.0762H34.4977L19.1016 39.8251L24.1092 26.0907Z" fill="black"/>
</g>
<defs>
<clipPath id="clip0">
<rect width="49.922" height="51.1333" fill="white" transform="translate(0.703003)"/>
</clipPath>
</defs>
</svg>
