<svg width="20" height="20" viewBox="0 0 20 20" fill="none" xmlns="http://www.w3.org/2000/svg">
<path opacity="0.75" d="M13.4654 15.6282C13.3639 15.6282 13.263 15.5981 13.1765 15.5395L9.90775 13.3222L8.15459 14.5837C8.01709 14.6826 7.83987 14.7075 7.68021 14.6504C7.52076 14.5932 7.39966 14.4611 7.35643 14.2973L6.47615 10.9613L3.33079 9.75861C3.13278 9.68286 3.00145 9.49343 3.00001 9.28142C2.99857 9.06941 3.12729 8.87819 3.32434 8.79976L15.2842 4.04087C15.3384 4.01781 15.3959 4.0045 15.4538 4.00093C15.4745 3.9997 15.4953 3.9997 15.5159 4.00087C15.6359 4.008 15.7537 4.05685 15.8456 4.14701C15.8551 4.15634 15.8642 4.16588 15.8728 4.17583C15.9489 4.26283 15.9908 4.3689 15.9987 4.47696C16.0006 4.50413 16.0005 4.53165 15.9981 4.55916C15.9964 4.57878 15.9936 4.59834 15.9896 4.61775L13.9709 15.2099C13.9384 15.3801 13.8226 15.5225 13.6626 15.5889C13.5991 15.6152 13.5321 15.6282 13.4654 15.6282ZM10.1948 12.2733L13.1064 14.2483L14.6772 6.00638L9.00393 11.4655L10.181 12.264C10.1858 12.267 10.1903 12.2701 10.1948 12.2733ZM7.77092 11.8341L8.16077 13.3113L9.00071 12.7069L7.90087 11.9608C7.84975 11.9263 7.80598 11.8832 7.77092 11.8341ZM4.93047 9.26831L7.09022 10.0941C7.24494 10.1532 7.36172 10.2833 7.40398 10.4434L7.67788 11.4814C7.69043 11.3617 7.74471 11.2491 7.83287 11.1642L13.2387 5.96247L4.93047 9.26831Z" fill="black"/>
<path d="M14.5862 0H5.41382C2.42859 0 0 2.42859 0 5.41382V14.5863C0 17.5714 2.42859 20 5.41382 20H14.5863C17.5714 20 20 17.5714 20 14.5863V5.41382C20 2.42859 17.5714 0 14.5862 0V0ZM18.8275 14.5863C18.8275 16.9249 16.9249 18.8275 14.5862 18.8275H5.41382C3.0751 18.8275 1.17249 16.9249 1.17249 14.5863V5.41382C1.17249 3.0751 3.0751 1.17249 5.41382 1.17249H14.5863C16.9249 1.17249 18.8275 3.0751 18.8275 5.41382V14.5863Z" fill="black"/>
</svg>
