<svg width="20" height="20" viewBox="0 0 20 20" fill="none" xmlns="http://www.w3.org/2000/svg">
<path d="M14.5862 0H5.41381C2.42858 0 0 2.42858 0 5.41381V14.5863C0 17.5714 2.42858 20 5.41381 20H14.5863C17.5714 20 20 17.5714 20 14.5863V5.41381C20 2.42858 17.5714 0 14.5862 0V0ZM18.8275 14.5863C18.8275 16.9249 16.9249 18.8275 14.5862 18.8275H5.41381C3.0751 18.8275 1.17248 16.9249 1.17248 14.5863V5.41381C1.17248 3.0751 3.0751 1.17248 5.41381 1.17248H14.5863C16.9249 1.17248 18.8275 3.0751 18.8275 5.41381V14.5863Z" fill="black"/>
<path d="M12.3931 5.90143V5.9H12.2931H7.70691C6.18104 5.9 4.9 6.89654 4.9 8.16553V11.8345C4.9 13.1035 6.18104 14.1 7.70691 14.1H12.2932C13.819 14.1 15.1 13.1035 15.1 11.8345V8.16553C15.1 6.92436 13.8745 5.94383 12.3931 5.90143ZM14.3138 11.8345C14.3138 12.6951 13.4292 13.431 12.2931 13.431H7.70691C6.5708 13.431 5.68624 12.6951 5.68624 11.8345V8.16553C5.68624 7.30494 6.5708 6.56899 7.70691 6.56899H12.2932C13.4292 6.56899 14.3138 7.30494 14.3138 8.16553V11.8345Z" fill="black" stroke="black" stroke-width="0.2"/>
<path d="M11.7325 10.1156L11.7324 10.1156C11.7325 10.1156 11.7325 10.1156 11.7325 10.1156L11.7991 10.25L11.7325 10.1156ZM11.4609 10.25L9.1 11.4183V9.08167L11.4609 10.25Z" stroke="black" stroke-width="0.7"/>
</svg>
